<svg width="127" height="40" viewBox="0 0 127 40" fill="none" xmlns="http://www.w3.org/2000/svg">
<path d="M8.05498 17.0139C15.7144 29.926 22.0456 31.394 23.4137 39.0434C21.3965 39.0434 20.3879 39.0434 18.3807 39.0434C18.2209 37.6853 17.9912 37.0661 17.3621 35.8778C16.6431 35.8878 16.2836 35.8977 15.5646 35.9077C15.994 37.0861 16.1238 37.6953 16.0639 39.0434C14.0267 39.0434 13.0081 39.0434 10.9709 39.0434C11.5501 31.6436 4.79949 31.8933 0.0161133 23.2952C3.1318 20.579 4.74956 19.3207 8.07495 17.0039L8.05498 17.0139ZM15.4447 32.9918C13.7471 31.0744 11.2705 28.9574 7.97509 25.3623C10.8511 29.8561 12.6187 31.6736 13.6373 33.1116C14.3563 33.0617 14.7257 33.0417 15.4447 32.9918Z" fill="#F6F6F6"/>
<path d="M32.4313 26.501C30.2043 26.7307 29.0959 26.8505 26.8789 27.1301C26.0501 25.2128 25.6207 24.1842 24.5422 21.5478C23.7633 19.6305 23.204 18.2923 22.8745 17.793C22.5549 17.3037 22.1655 17.114 21.7261 17.2638C21.2368 17.4335 21.037 17.8629 21.1569 18.532C21.2767 19.2011 21.7361 20.5492 22.5549 22.3567C25.5308 29.0075 26.6093 30.6552 27.9475 34.1304C28.297 35.0391 28.5167 35.6084 28.7064 35.878C28.8962 36.1476 29.1758 36.2774 29.5652 36.2774C29.9347 36.2774 30.1544 36.1376 30.1944 35.858C30.2343 35.5784 30.1344 34.9493 29.745 33.9007C29.3955 32.9421 29.1658 32.4028 28.6665 31.2444C30.7835 31.1246 31.8421 31.0647 33.9492 30.9748C34.079 31.3542 34.1389 31.544 34.2587 31.9135C35.0576 34.3501 35.1775 35.5684 35.0476 36.3773C34.9178 37.1962 34.3786 37.8952 33.4698 38.5143C32.5611 39.1335 31.3727 39.453 29.9846 39.453C28.5966 39.453 27.3683 39.1834 26.3996 38.6641C25.431 38.1448 24.7219 37.4358 24.1827 36.577C23.6434 35.7182 23.0642 34.5898 21.9757 32.6425C20.6875 30.3257 19.8387 29.1473 18.141 26.2313C17.0925 24.4338 16.0839 22.5564 15.5746 21.3082C15.0653 20.0599 14.8057 18.7018 14.8057 17.1339C14.8057 15.5661 15.1652 14.0183 15.8742 12.5802C16.5832 11.1422 17.6018 9.96387 18.9499 9.25485C20.7674 8.28619 22.515 8.39604 24.1527 9.55443C25.7905 10.7128 27.1086 12.4904 28.1072 14.5974C29.1059 16.7045 30.3941 20.1498 31.4326 23.4152C31.8521 24.7434 32.0518 25.3625 32.4412 26.5209L32.4313 26.501Z" fill="#F6F6F6"/>
<path d="M42.2078 2.32422C42.9767 8.24602 43.3262 10.7326 43.9753 15.0566C42.5373 15.2663 41.8283 15.3961 40.3703 15.6058C43.4161 32.3027 44.4247 33.0117 44.5146 39.0434C42.5473 39.0434 41.5587 39.0434 39.5914 39.0434C39.4916 32.9518 38.1334 32.2927 34.2788 16.6144C32.8408 16.8841 32.1317 17.0339 30.7037 17.3434C29.6352 13.6086 29.076 11.4915 27.9575 6.50843C33.5398 4.38137 36.4158 3.57249 42.2078 2.32422Z" fill="#F6F6F6"/>
<path d="M50.3861 0.946289C51.4147 13.5688 53.1123 26.3611 53.4918 39.0435C51.5245 39.0435 50.5359 39.0435 48.5686 39.0435C47.9794 26.7406 45.3031 14.188 43.7153 2.01481C46.3717 1.48554 47.7098 1.27583 50.3861 0.946289Z" fill="#F6F6F6"/>
<path d="M69.0906 0.496725C67.8424 13.3889 66.5741 26.2211 64.6767 39.0434C61.6809 39.0434 60.183 39.0434 57.1871 39.0434C54.9702 26.321 53.1727 13.6285 51.5449 0.816282C54.371 0.496725 55.799 0.396863 58.6351 0.297001C59.3142 11.1719 60.0032 22.0369 60.7921 32.9118C61.0018 28.438 61.2315 21.8372 61.5611 12.9695C61.7208 8.55557 61.8007 6.05902 61.9905 0.24707C64.8365 0.24707 66.2546 0.297001 69.0906 0.516697V0.496725Z" fill="#F6F6F6"/>
<path d="M76.9196 1.41457C75.6115 13.8374 73.4245 26.5198 72.9452 39.0425C70.9779 39.0425 69.9892 39.0425 68.022 39.0425C68.2916 26.2302 69.4999 13.368 70.2289 0.595703C72.9152 0.835371 74.2633 0.99515 76.9296 1.42456L76.9196 1.41457Z" fill="#F6F6F6"/>
<path d="M89.6417 21.4282C87.4847 21.0986 86.4062 20.9588 84.2392 20.6992C84.5188 19.411 84.6586 18.7319 84.9582 17.2739C85.3077 15.5763 85.4675 14.358 85.4176 13.8087C85.3677 13.2695 85.1679 12.9499 84.8284 12.89C84.4489 12.8301 84.0994 13.1496 83.7898 13.8287C83.4703 14.5078 83.1907 15.5463 82.961 16.8445C82.6614 18.5222 82.5516 19.6706 82.6015 20.4296C82.6514 21.1885 83.0309 22.1172 83.7099 23.1258C85.6772 26.0218 86.7158 27.7594 86.9854 29.0177C87.255 30.2759 86.9555 32.1433 86.4761 34.1406C86.1266 35.5886 85.817 36.5572 85.4276 37.1963C85.0381 37.8355 84.399 38.3647 83.4803 38.7941C82.5615 39.2235 81.513 39.4432 80.3146 39.4432C78.9965 39.4432 77.868 39.1936 76.9493 38.6943C76.0306 38.195 75.4414 37.5658 75.2117 36.7769C74.982 35.988 74.9321 34.8796 75.1518 33.1819C75.2317 32.5827 75.2716 32.2732 75.3615 31.6041C77.2888 31.644 78.2475 31.684 80.1848 31.7239C79.9551 32.9223 79.8553 33.4615 79.6955 34.4801C79.5757 35.269 79.5757 35.7284 79.6855 35.9381C79.7854 36.1478 80.0051 36.2477 80.3446 36.2477C80.6741 36.2477 80.9338 36.1178 81.1335 35.8482C81.3332 35.5786 81.473 35.1891 81.5729 34.6399C81.7826 33.4316 81.8226 32.5228 81.5929 32.0834C81.3632 31.644 80.6941 30.9051 79.6056 29.6568C78.5171 28.3985 77.7881 27.33 77.4486 26.6509C77.1091 25.9819 76.8894 25.0332 76.7795 23.6851C76.6697 22.3469 76.7795 20.5194 77.1191 17.8731C77.6284 14.0484 78.2775 10.5832 79.0364 8.35627C79.7954 6.12936 80.8339 4.30189 82.1321 3.08357C83.4303 1.86526 84.8983 1.43586 86.4661 1.86526C88.1837 2.33461 89.5119 3.60286 90.4207 5.42034C91.3294 7.22784 91.7488 9.17514 91.6989 11.1624C91.649 13.1496 91.0897 16.2653 90.1311 19.7505C89.9413 20.4395 89.8415 20.7791 89.6617 21.4382L89.6417 21.4282Z" fill="#F6F6F6"/>
<path d="M114.907 16.2943C108.546 30.8341 102.784 31.4133 102.524 39.0328C100.797 39.0328 99.9377 39.0328 98.2201 39.0328C98.3599 33.8599 99.7879 33.2907 104.322 25.0621C98.999 33.121 97.3114 33.8599 96.5025 39.0328C95.2842 39.0328 94.665 39.0328 93.4467 39.0328C92.8376 33.9698 94.1358 32.7315 96.5025 24.0236C93.2969 32.5817 91.7391 33.9698 91.6292 39.0328C89.9016 39.0328 89.0428 39.0328 87.3252 39.0328C88.5835 28.5273 93.3768 16.3142 96.0431 6.50781C99.3486 7.76607 100.976 8.47509 104.172 10.0529C103.493 13.3284 102.604 16.7337 101.546 19.9891C100.257 24.0735 99.6881 25.5714 98.7694 28.2078C101.546 23.5143 103.703 20.3387 107.178 11.6107C110.343 13.3184 111.891 14.2571 114.907 16.2943Z" fill="#F6F6F6"/>
<path d="M117.213 17.9131C121.018 20.6593 122.856 22.1572 126.361 25.4327C125.242 26.5511 124.563 27.0604 123.175 28.0491C121.707 27.2901 120.958 26.9306 119.47 26.2216C118.122 27.6097 117.393 28.2588 116.115 29.4172C117.503 29.7467 118.192 29.9265 119.58 30.276C118.242 31.2047 117.573 31.664 116.405 32.6427C115.076 32.4929 114.407 32.413 113.079 32.2732C111.791 33.5914 111.222 34.2205 110.453 35.6086C111.941 35.6485 112.68 35.6685 114.178 35.7084C113.409 36.9068 113.149 37.5559 113.069 39.0438C109.654 39.0438 107.936 39.0438 104.521 39.0438C104.801 31.4543 110.922 30.8452 117.233 17.9131H117.213Z" fill="#F6F6F6"/>
</svg>
