<svg width="1440" height="840" viewBox="0 0 1440 840" fill="none" xmlns="http://www.w3.org/2000/svg">
<line y1="69.5" x2="1440" y2="69.5" stroke="#F6F6F6"/>
<line y1="139.5" x2="1440" y2="139.5" stroke="#F6F6F6"/>
<line y1="209.5" x2="1440" y2="209.5" stroke="#F6F6F6"/>
<line y1="279.5" x2="1440" y2="279.5" stroke="#F6F6F6"/>
<line y1="349.5" x2="1440" y2="349.5" stroke="#F6F6F6"/>
<line y1="419.5" x2="1440" y2="419.5" stroke="#F6F6F6"/>
<line y1="489.5" x2="1440" y2="489.5" stroke="#F6F6F6"/>
<line y1="559.5" x2="1440" y2="559.5" stroke="#F6F6F6"/>
<line y1="629.5" x2="1440" y2="629.5" stroke="#F6F6F6"/>
<line y1="699.5" x2="1440" y2="699.5" stroke="#F6F6F6"/>
<line y1="769.5" x2="1440" y2="769.5" stroke="#F6F6F6"/>
<line x1="1385.5" y1="2.18557e-08" x2="1385.5" y2="840" stroke="#F6F6F6"/>
<line x1="1315.5" y1="2.18557e-08" x2="1315.5" y2="840" stroke="#F6F6F6"/>
<line x1="1245.5" y1="2.18557e-08" x2="1245.5" y2="840" stroke="#F6F6F6"/>
<line x1="1175.5" y1="2.18557e-08" x2="1175.5" y2="840" stroke="#F6F6F6"/>
<line x1="1105.5" y1="2.18557e-08" x2="1105.5" y2="840" stroke="#F6F6F6"/>
<line x1="1035.5" y1="2.18557e-08" x2="1035.5" y2="840" stroke="#F6F6F6"/>
<line x1="965.5" y1="2.18557e-08" x2="965.5" y2="840" stroke="#F6F6F6"/>
<line x1="895.5" y1="2.18557e-08" x2="895.5" y2="840" stroke="#F6F6F6"/>
<line x1="825.5" y1="2.18557e-08" x2="825.5" y2="840" stroke="#F6F6F6"/>
<line x1="755.5" y1="2.18557e-08" x2="755.5" y2="840" stroke="#F6F6F6"/>
<line x1="685.5" y1="2.18557e-08" x2="685.5" y2="840" stroke="#F6F6F6"/>
<line x1="615.5" y1="2.18557e-08" x2="615.5" y2="840" stroke="#F6F6F6"/>
<line x1="545.5" y1="2.18557e-08" x2="545.5" y2="840" stroke="#F6F6F6"/>
<line x1="475.5" y1="2.18557e-08" x2="475.5" y2="840" stroke="#F6F6F6"/>
<line x1="405.5" y1="2.18557e-08" x2="405.5" y2="840" stroke="#F6F6F6"/>
<line x1="335.5" y1="2.18557e-08" x2="335.5" y2="840" stroke="#F6F6F6"/>
<line x1="265.5" y1="2.18557e-08" x2="265.5" y2="840" stroke="#F6F6F6"/>
<line x1="195.5" y1="2.18557e-08" x2="195.5" y2="840" stroke="#F6F6F6"/>
<line x1="125.5" y1="2.18557e-08" x2="125.5" y2="840" stroke="#F6F6F6"/>
<line x1="55.5" y1="2.18557e-08" x2="55.5" y2="840" stroke="#F6F6F6"/>
</svg>
