<svg width="129" height="80" viewBox="0 0 129 80" fill="none" xmlns="http://www.w3.org/2000/svg">
<path d="M3.75761 49.1039C2.01985 48.242 0.85776 46.5395 0.292855 44.0608C-0.250531 41.6302 -0.0460904 38.691 0.97612 35.179C3.14249 28.4262 5.51689 21.586 8.09931 14.6584C9.93391 10.1666 11.8707 6.76169 13.7968 4.5078C15.6906 2.21107 17.5521 1.27417 19.3436 1.69176C20.3013 1.92732 20.9899 2.56976 21.4096 3.60838C21.8292 4.6577 21.9691 6.09784 21.8023 7.91809C21.6678 9.71157 21.1782 11.9012 20.3443 14.4389C19.4441 17.2335 18.5599 20.0156 17.6919 22.7853C16.2393 22.2856 14.767 21.8002 13.2749 21.3291C14.0676 19.0127 14.8728 16.691 15.6906 14.3639C16.1963 12.9559 16.4545 11.9655 16.4653 11.4515C16.4814 10.9054 16.32 10.5949 15.9757 10.5039C15.5668 10.4022 15.1687 10.6378 14.776 11.2588C14.4047 11.8316 14.0174 12.6614 13.63 13.7001C10.8862 21.4629 8.32886 29.1526 5.95805 36.7691C5.59759 38.0111 5.43619 38.948 5.47923 39.5262C5.53841 40.1419 5.74823 40.5273 6.10869 40.6826C6.5122 40.8539 6.89418 40.6558 7.22774 40.0776C7.58821 39.5048 7.91101 38.6803 8.20153 37.6524C9.01213 34.8649 9.84245 32.0757 10.6925 29.2846C12.2455 29.845 13.7771 30.4178 15.2871 31.0031C14.4263 34.044 13.5852 37.076 12.7638 40.099C11.6501 44.3659 10.3643 47.1713 8.84176 48.5739C7.34073 49.9016 5.65677 50.0783 3.75761 49.1039ZM16.6966 56.2029C14.8889 55.1589 13.7699 53.1674 13.3556 50.2229C12.9629 47.3212 13.3341 43.6646 14.4854 39.2157C16.6195 31.5349 18.8558 23.8381 21.1944 16.1253C22.5179 11.9548 23.9436 8.92458 25.4446 6.9812C26.9134 5.04852 28.366 4.31506 29.824 4.80225C31.2604 5.29479 32.0406 6.79382 32.1912 9.31005C32.3741 11.8852 31.933 15.349 30.8623 19.7551C28.9327 27.9712 27.0586 36.2176 25.2402 44.4944C24.2341 49.3127 23.0128 52.7551 21.5763 54.7895C20.1184 56.7918 18.4936 57.2469 16.6966 56.2029ZM18.8164 46.8072C19.4835 47.1552 20.1614 45.8114 20.85 42.8027C22.855 34.5473 24.9335 26.3062 27.0855 18.0794C27.7526 15.6167 27.8172 14.2836 27.2523 14.0748C26.6175 13.8446 25.9342 14.9742 25.224 17.469C22.9967 25.5781 20.85 33.7032 18.7841 41.8443C18.4021 43.4237 18.2246 44.5854 18.23 45.3778C18.2407 46.1112 18.429 46.6038 18.8164 46.8072ZM24.1157 60.0361C27.6953 42.2369 31.4739 24.659 35.4515 7.30242C37.1946 7.93415 38.9288 8.5641 40.654 9.19226C39.0687 20.2887 37.5677 31.551 36.1509 42.9793C38.6078 31.9793 41.0539 21.0542 43.4893 10.2041C45.2073 10.8073 46.9218 11.3998 48.6326 11.9815C46.0574 30.8051 43.5557 50.1443 41.1275 69.9993C39.8147 69.2534 38.4984 68.4985 37.1785 67.7347C39.101 53.6903 41.0844 39.8778 43.1288 26.2973C40.3133 39.5066 37.4995 52.8354 34.6875 66.2839C33.3784 65.513 32.071 64.742 30.7655 63.9711C32.1751 50.0979 33.7389 36.5032 35.4569 23.1868C32.9067 36.0927 30.4534 49.1628 28.097 62.3971C26.7735 61.6119 25.4464 60.8249 24.1157 60.0361ZM43.0481 71.0754C45.34 50.9777 47.6965 31.4404 50.1175 12.4634C51.8069 12.9916 53.4962 13.502 55.1855 13.9945C54.522 25.8404 53.9105 37.9879 53.3509 50.437C54.9255 38.2841 56.4678 26.3811 57.9778 14.728C59.6886 15.1241 61.4067 15.4935 63.1319 15.8362C61.9411 35.6876 60.77 56.5902 59.6187 78.5438C58.3383 78.1655 57.0596 77.7479 55.7827 77.291C56.7762 61.4834 57.7967 46.2076 58.844 31.4636C57.0435 45.9899 55.216 60.9338 53.3617 76.2953C52.092 75.7206 50.8151 75.1228 49.5311 74.5018C50.0368 58.9583 50.6394 43.8948 51.3388 29.3114C49.8324 43.5736 48.3618 58.1945 46.9272 73.1741C45.636 72.4852 44.3429 71.7857 43.0481 71.0754ZM66.1232 80C64.4446 79.9625 63.261 78.2172 62.5831 74.8712C61.9214 71.5037 61.7331 66.7871 62.0182 60.7642C62.8216 45.3314 63.6215 30.4303 64.4177 16.061C65.5117 16.2252 66.6092 16.3787 67.7103 16.5215C67.1042 30.7051 66.4837 45.4188 65.8488 60.6625C65.8058 61.7707 65.7842 62.8093 65.7789 63.848C65.7896 64.8545 65.8381 65.6736 65.951 66.3428C66.0533 67.0066 66.2577 67.3653 66.5536 67.3707C66.8656 67.376 67.0916 67.0655 67.253 66.4017C67.409 65.7432 67.5166 64.9294 67.5758 63.8854C67.6619 62.8522 67.7049 61.8243 67.748 60.7161C68.3111 45.5223 68.8545 30.8497 69.3781 16.6981C70.49 16.7909 71.6037 16.8712 72.7191 16.939C72.3354 31.137 71.9229 45.8382 71.4817 61.0426C71.3149 66.9531 70.8092 71.5573 69.9377 74.8498C69.0661 78.1476 67.8018 79.9036 66.1232 80ZM72.4878 78.4421C73.0617 57.006 73.5817 36.5228 74.048 16.9926C75.2388 17.0211 76.4332 17.039 77.6311 17.0461C78.0759 26.0189 78.5153 35.1255 78.9492 44.3659C79.0712 35.0826 79.1698 25.9689 79.2451 17.0247C80.3785 16.989 81.5155 16.9462 82.6561 16.8962C82.5987 35.577 82.4014 54.9216 82.0643 74.9301C80.7946 75.4726 79.5249 76.0008 78.2552 76.5148C77.8499 66.1857 77.4339 55.9798 77.007 45.8971C76.7954 56.1333 76.5623 66.5837 76.3076 77.2482C75.0379 77.6729 73.7647 78.0709 72.4878 78.4421ZM83.2533 74.4001C84.1786 54.438 84.9139 35.2129 85.4591 16.7249C87.4964 16.5607 89.5426 16.3769 91.5978 16.1735C92.5446 33.5622 93.2476 51.2918 93.7067 69.3623C92.4478 69.9904 91.1942 70.6132 89.9461 71.2307C89.9174 68.1648 89.8833 65.1096 89.8438 62.0652C89.0548 62.3935 88.2693 62.7166 87.4874 63.0342C87.3475 66.2143 87.2022 69.414 87.0516 72.6333C85.7819 73.233 84.5158 73.8219 83.2533 74.4001ZM87.8801 53.7509C88.4684 53.5546 89.0602 53.3548 89.6556 53.1513C89.3901 43.8323 89.0763 34.6169 88.714 25.5049C88.6638 25.5121 88.61 25.5192 88.5526 25.5263C88.3877 34.7739 88.1635 44.1821 87.8801 53.7509ZM99.5764 66.8407C97.887 67.708 96.6873 67.0655 95.9448 64.908C95.2024 62.6969 94.8634 59.11 94.9172 54.1632C94.8563 41.168 94.6375 28.4048 94.2609 15.8737C95.4732 15.7273 96.6927 15.5774 97.9193 15.4239C98.425 27.4733 98.7353 39.7296 98.8501 52.193C98.8447 53.0764 98.8608 53.8955 98.8877 54.7092C98.9254 55.4855 99.0007 56.1012 99.1406 56.5616C99.2751 57.022 99.4849 57.204 99.797 57.0702C100.12 56.9257 100.351 56.583 100.502 56.0048C100.652 55.4266 100.749 54.7521 100.792 53.9222C100.835 53.0871 100.857 52.268 100.862 51.3953C100.726 39.1247 100.371 27.0503 99.797 15.1723C101.063 14.9974 102.34 14.819 103.628 14.637C104.356 26.2973 104.799 38.145 104.956 50.18C104.886 54.7574 104.397 58.4408 103.498 61.2621C102.595 64.0889 101.298 65.9573 99.5764 66.8407ZM108.093 62.0545C108.401 48.7738 108.296 35.7661 107.776 23.0315C106.918 23.2135 106.07 23.392 105.231 23.5669C105.012 20.5367 104.775 17.5154 104.521 14.5031C107.569 14.0463 110.731 13.5609 114.006 13.0469C114.422 15.8487 114.806 18.6576 115.157 21.4736C114.192 21.677 113.235 21.8787 112.284 22.0786C112.883 34.4027 112.949 47.0017 112.483 59.8755C111.009 60.6036 109.546 61.3299 108.093 62.0545ZM116.491 57.9429C117.162 42.5171 116.771 27.4822 115.318 12.8381C118.697 12.2849 122.291 11.6871 126.1 11.0446C126.839 13.6287 127.511 16.2252 128.118 18.8342C126.019 19.2625 123.996 19.6783 122.049 20.0816C122.408 22.8227 122.707 25.587 122.947 28.3745C124.866 27.9034 126.857 27.4215 128.919 26.929C129.012 29.5523 129.025 32.2024 128.957 34.8792C126.945 35.4396 124.997 35.9928 123.114 36.5389C122.971 39.9152 122.763 43.3166 122.49 46.743C124.445 46.0434 126.461 45.3403 128.537 44.6336C128.046 47.4996 127.519 50.3924 126.955 53.3119C123.333 54.8574 119.845 56.401 116.491 57.9429ZM116.846 11.2588C116.477 9.45638 116.095 7.65576 115.7 5.85692C117.383 3.8832 119.043 1.93089 120.682 0C121.608 2.65899 122.503 5.30906 123.367 7.95021C121.136 9.05307 118.963 10.1559 116.846 11.2588Z" fill="#C8C8C8"/>
</svg>
