<svg width="70" height="66" viewBox="0 0 70 66" fill="none" xmlns="http://www.w3.org/2000/svg">
<path d="M4.78863 61.5651C3.55863 62.9451 2.54863 63.6351 1.78863 63.6251C1.03863 63.6051 0.658633 62.8251 0.648633 61.2451C0.635299 58.1251 0.621966 54.9217 0.608633 51.6351C0.598633 49.4651 0.908633 47.2351 1.54863 44.9451C2.18863 42.5651 3.23863 40.0751 4.69863 37.5651C5.48863 36.1951 6.20863 35.2151 6.82863 34.6951C7.44863 34.1751 7.95863 34.1551 8.31863 34.6451C8.69863 35.1051 8.87863 36.1451 8.89863 37.6951C8.91197 39.3417 8.9253 40.9517 8.93863 42.5251C7.81863 44.0517 6.6953 45.5851 5.56863 47.1251C5.56197 45.8984 5.55197 44.6517 5.53863 43.3851C5.53863 42.6151 5.45863 42.1751 5.32863 42.1051C5.19863 42.0251 5.00863 42.1951 4.73863 42.6051C4.42863 43.0951 4.20863 43.5951 4.10863 44.1251C3.99863 44.6151 3.94863 45.1451 3.95863 45.6951C3.9853 49.6684 4.00863 53.4751 4.02863 57.1151C4.03863 57.6951 4.10863 58.0251 4.23863 58.0951C4.38863 58.1651 4.58863 58.0551 4.84863 57.7551C5.12863 57.4151 5.33863 57.0251 5.44863 56.6051C5.57863 56.1551 5.62863 55.6851 5.62863 55.2151C5.6153 53.8884 5.6053 52.5451 5.59863 51.1851C6.73863 49.7384 7.87863 48.3051 9.01863 46.8851C9.03197 48.4184 9.0453 49.9184 9.05863 51.3851C9.07863 53.3651 8.70863 55.1551 7.95863 56.8551C7.20863 58.4851 6.15863 60.0451 4.78863 61.5651ZM14.2086 51.4451C12.7786 52.9051 11.7286 53.5151 11.0386 53.2451C10.3586 52.9551 10.0086 51.8051 9.98863 49.7251C9.92863 43.4584 9.86197 36.5917 9.78863 29.1251C10.882 27.2917 11.9753 25.4751 13.0686 23.6751C13.1486 31.7751 13.2253 39.1517 13.2986 45.8051C13.2986 46.2251 13.3286 46.5851 13.3586 46.9351C13.3986 47.2551 13.4786 47.4651 13.5986 47.5751C13.7086 47.6951 13.8986 47.6151 14.1586 47.3451C14.4286 47.0651 14.6086 46.7651 14.7286 46.4051C14.8486 46.0451 14.9086 45.6751 14.9286 45.2751C14.9586 44.8451 14.9686 44.4451 14.9586 44.0151C14.8853 37.1417 14.802 29.4684 14.7086 20.9951C15.802 19.2617 16.8953 17.5517 17.9886 15.8651C18.0953 25.2051 18.192 33.5417 18.2786 40.8751C18.3086 43.1651 17.9886 45.1151 17.3386 46.8151C16.6786 48.4851 15.6386 50.0051 14.2086 51.4451ZM19.6786 45.9851C19.5653 37.2517 19.432 26.5651 19.2786 13.9251C20.4053 12.3117 21.532 10.7384 22.6586 9.20508C22.8053 20.8984 22.9353 30.9184 23.0486 39.2651C24.222 38.4117 25.3953 37.6117 26.5686 36.8651C26.5886 38.1784 26.6086 39.4217 26.6286 40.5951C24.3153 42.2351 21.9986 44.0317 19.6786 45.9851ZM28.4486 39.5551C28.342 32.7217 28.2153 23.9351 28.0686 13.1951C27.3953 13.6884 26.722 14.2117 26.0486 14.7651C26.0086 11.7051 25.9686 8.53508 25.9286 5.25508C28.4086 3.02174 30.8953 1.36174 33.3886 0.275078C33.4353 3.99508 33.4786 7.55508 33.5186 10.9551C32.8453 11.0684 32.1686 11.2217 31.4886 11.4151C31.642 22.5017 31.7753 31.4284 31.8886 38.1951C30.742 38.5751 29.5953 39.0284 28.4486 39.5551ZM38.8586 38.6151C37.4286 38.2151 36.3586 37.6251 35.6786 36.6851C34.9786 35.7051 34.6086 34.1451 34.5686 31.8151C34.442 23.2817 34.2953 12.7451 34.1286 0.205078C35.2486 0.305078 36.3653 0.548411 37.4786 0.935078C37.6453 13.1684 37.7886 23.5084 37.9086 31.9551C37.9186 32.4151 37.9386 32.8451 37.9786 33.2651C38.0186 33.6551 38.0986 33.9851 38.2186 34.2551C38.3386 34.5351 38.5286 34.7151 38.7886 34.7851C39.0586 34.8751 39.2486 34.8251 39.3686 34.6151C39.4686 34.4151 39.5486 34.1251 39.5586 33.7351C39.5886 33.3251 39.5986 32.9151 39.5886 32.4451C39.4686 24.0717 39.332 13.8951 39.1786 1.91508C40.2986 2.78841 41.422 3.75841 42.5486 4.82508C42.6953 16.2317 42.8286 26.0351 42.9486 34.2351C42.9786 36.5951 42.6686 38.0151 41.9986 38.6651C41.3486 39.2451 40.2986 39.1751 38.8586 38.6151ZM44.3686 41.3251C44.2353 32.3317 44.0753 20.6451 43.8886 6.26508C45.682 8.42508 47.4686 10.7017 49.2486 13.0951C50.1486 14.3651 50.8386 15.8451 51.2986 17.4651C51.7586 19.0651 52.0786 20.7951 52.2586 22.6351C52.4386 24.4351 52.5386 26.3451 52.5586 28.3551C52.5786 30.2351 52.4786 31.5551 52.2486 32.3451C52.0186 33.1251 51.5786 33.3751 50.9186 33.0651C51.4686 33.8351 51.8586 34.7251 52.0786 35.7051C52.3086 36.6651 52.4286 37.7151 52.4386 38.8451C52.4786 42.1451 52.5186 45.2384 52.5586 48.1251C51.4253 47.0717 50.292 46.0417 49.1586 45.0351C49.112 42.0351 49.0653 38.7584 49.0186 35.2051C49.0086 34.3251 48.8986 33.6851 48.6886 33.2751C48.4786 32.8751 48.1486 32.4551 47.6986 32.0551C47.752 36.4417 47.8053 40.4084 47.8586 43.9551C46.6986 43.0351 45.5353 42.1584 44.3686 41.3251ZM47.6286 26.1251C47.9086 26.3984 48.1886 26.6717 48.4686 26.9451C48.9486 27.4451 49.1786 26.6251 49.1586 24.3751C49.1386 22.8851 49.0786 21.8151 48.9586 21.2051C48.8486 20.6151 48.6486 20.1151 48.3586 19.7851C48.092 19.4784 47.8186 19.1684 47.5386 18.8551C47.572 21.3617 47.602 23.7851 47.6286 26.1251ZM53.9286 49.4451C53.8353 41.0117 53.722 31.0184 53.5886 19.4651C55.9286 23.1117 58.2653 26.8117 60.5986 30.5651C60.6186 32.6117 60.6386 34.6151 60.6586 36.5751C59.5186 34.9217 58.3753 33.2784 57.2286 31.6451C57.2486 33.7051 57.2686 35.7184 57.2886 37.6851C58.382 39.0851 59.4786 40.4984 60.5786 41.9251C60.592 43.5851 60.6053 45.2117 60.6186 46.8051C59.5253 45.5051 58.4353 44.2184 57.3486 42.9451C57.3686 44.9117 57.3853 46.8151 57.3986 48.6551C58.612 49.9684 59.822 51.2951 61.0286 52.6351C61.042 54.0484 61.0553 55.4384 61.0686 56.8051C58.6886 54.2917 56.3086 51.8384 53.9286 49.4451ZM62.2186 58.0451C62.152 50.5384 62.0786 42.1417 61.9986 32.8551C63.172 34.7817 64.342 36.7084 65.5086 38.6351C65.562 45.7151 65.6086 52.3051 65.6486 58.4051C66.8353 59.7717 68.022 61.1417 69.2086 62.5151C69.2153 63.6151 69.2186 64.7084 69.2186 65.7951C66.8853 63.1884 64.552 60.6051 62.2186 58.0451Z" fill="#C8C8C8"/>
</svg>
