<svg width="74" height="120" viewBox="0 0 74 120" fill="none" xmlns="http://www.w3.org/2000/svg">
<path d="M0.921387 70.4842C1.45812 58.5903 1.98144 46.9512 2.49133 35.5669C4.20218 33.6798 5.91973 31.7507 7.64399 29.7796C9.00259 28.1921 9.96872 28.0913 10.5222 29.6116C11.0556 31.2831 11.1965 34.4246 10.9348 38.9436C10.4115 47.9984 9.8815 57.1008 9.34476 66.2508C9.01266 71.9037 8.49941 75.9943 7.80501 78.2958C7.13073 80.4714 6.17467 80.3202 4.93683 77.9263C3.59499 75.384 2.25651 72.9033 0.921387 70.4842ZM4.38332 67.5947C4.56447 67.8187 4.74562 68.0455 4.92677 68.2751C5.5004 68.9975 5.84257 68.4599 5.94321 66.6876C6.39943 58.3271 6.84559 50.0367 7.28169 41.8163C7.37226 40.2287 7.34207 39.2544 7.20118 38.9184C7.06029 38.5572 6.74831 38.5656 6.25519 38.9184C6.121 39.0136 5.98682 39.106 5.85263 39.1956C5.36957 48.5472 4.8798 58.0135 4.38332 67.5947ZM9.35483 86.6199C10.6296 65.2736 11.8842 44.1738 13.1187 23.3203C14.333 21.8755 15.5474 20.4364 16.7618 19.0029C15.2723 43.2498 13.7594 67.6983 12.223 92.3484C11.2636 90.4389 10.3075 88.5294 9.35483 86.6199ZM14.7792 97.3966C15.846 69.6834 16.8121 43.1826 17.6776 17.8941C18.8785 16.4998 20.0794 15.1222 21.2804 13.7615C20.4686 33.0863 19.6333 52.6798 18.7745 72.5421C20.4384 52.5118 22.1392 31.9635 23.8768 10.8972C25.0577 9.64849 26.2418 8.43335 27.4294 7.2518C24.5243 40.6879 21.6729 73.3205 18.8752 105.149C17.5132 102.607 16.1479 100.023 14.7792 97.3966ZM21.6326 109.954C23.954 75.2132 26.2485 40.6543 28.5162 6.27744C30.9651 4.21673 33.3972 2.44721 35.8125 0.968877C35.2959 8.66854 34.786 16.2898 34.2828 23.8327C33.1288 24.1518 31.9681 24.5158 30.8007 24.9246C30.3244 32.0643 29.8514 39.1928 29.3817 46.3101C30.4686 46.2709 31.5555 46.2345 32.6424 46.2009C32.1593 53.307 31.6763 60.4466 31.1932 67.6199C30.1264 67.3791 29.063 67.1103 28.003 66.8136C27.4394 75.2244 26.8691 83.6996 26.2922 92.2392C27.4327 93.0624 28.5833 93.8016 29.744 94.4567C29.2073 102.268 28.6605 110.209 28.1036 118.278C25.9164 115.909 23.7594 113.135 21.6326 109.954ZM29.1905 119.051C31.9212 79.0518 34.6015 39.5008 37.2315 0.397703C39.0228 0.0281189 40.8008 -0.0838742 42.5653 0.0617194C43.4307 0.305309 43.9843 1.96003 44.2358 4.9503C44.4874 7.92377 44.5176 11.9136 44.3365 16.8862C44.1654 21.8084 43.8736 27.4697 43.4408 33.929C43.0181 40.1447 42.5653 45.0921 42.0721 48.788C41.5891 52.5006 40.9551 55.1129 40.2003 56.5492C40.7035 57.2548 40.9651 59.0187 40.9853 61.8494C41.0255 64.6045 40.8846 68.2415 40.5827 72.7689C39.583 87.4458 38.5565 102.453 37.5032 117.791C36.3022 118.608 35.1114 119.272 33.9305 119.782C35.0644 103.397 36.1614 87.4234 37.2214 71.8617C37.4529 68.4431 37.4931 66.3432 37.3321 65.5368C37.1912 64.7304 36.8893 64.2601 36.4264 64.2685C35.1986 82.3333 33.9238 100.91 32.6021 120C31.4549 119.871 30.3177 119.555 29.1905 119.051ZM37.8152 44.0422C38.097 44.0478 38.3754 44.0506 38.6505 44.0506C39.1335 44.059 39.6065 40.6067 40.0795 33.551C40.3814 28.9816 40.5324 25.9578 40.5223 24.5046C40.5223 23.1187 40.3714 22.3459 40.0795 22.3207C39.8111 22.3095 39.5428 22.2983 39.2744 22.2871C38.7846 29.578 38.2982 36.8297 37.8152 44.0422ZM43.4307 112.424C41.6797 114.574 40.6129 113.314 40.2103 108.711C39.838 103.957 40.0594 95.6327 40.8444 84.1588C41.0926 80.4294 41.3442 76.7111 41.5991 73.0041C42.7733 72.6121 43.9507 72.1809 45.1315 71.7105C44.8296 76.1735 44.5277 80.6729 44.2258 85.2087C44.0547 87.6866 43.9742 89.6773 44.0044 91.0381C44.0446 92.3232 44.2258 92.8356 44.5579 92.5584C44.89 92.2644 45.1517 91.5085 45.363 90.2233C45.5643 88.997 45.7655 87.0987 45.9366 84.5872C46.148 81.3533 46.2687 78.7242 46.2989 76.6579C46.3392 74.5328 46.2788 72.5673 46.1379 70.7362C46.0071 68.8883 45.7857 66.6876 45.5039 64.1677C45.1751 61.2446 44.8531 58.2599 44.5378 55.2137C43.8333 48.326 43.8031 40.1531 44.417 30.9639C45.0711 21.2876 45.9064 13.9211 46.8927 9.10812C47.8991 4.46312 49.0061 2.6404 50.2137 3.79955C51.6931 5.35348 52.5586 9.04932 52.8504 14.6603C53.1725 20.0864 53.0115 27.5369 52.3976 37.0537C51.2436 36.6729 50.093 36.3089 48.9457 35.9617C49.1 33.5818 49.2577 31.1991 49.4187 28.8136C49.5093 27.3521 49.5193 26.2182 49.4388 25.353C49.3684 24.4878 49.2174 24.0259 48.996 23.9083C48.7344 23.7655 48.5029 24.1014 48.3016 25.0506C48.1305 25.9326 47.9896 27.1085 47.889 28.6792C47.7884 30.1828 47.738 31.8291 47.7481 33.6182C47.7582 35.3905 47.889 37.4317 48.1305 39.7164C48.5331 43.6586 48.9457 47.4972 49.3684 51.2322C49.63 53.3993 49.8514 55.6421 50.0326 57.9604C50.2137 60.245 50.3144 62.8405 50.3244 65.8812C50.3244 68.8883 50.2037 72.5337 49.9018 77.0275C49.308 86.0403 48.5029 93.5832 47.4864 99.6393C46.4499 105.956 45.1013 110.248 43.4307 112.424ZM49.147 103.831C51.2 72.6009 53.2262 41.5111 55.2255 10.5613C56.2453 11.8716 57.2651 13.2043 58.2849 14.5595C56.5204 42.3286 54.7391 70.2518 52.941 98.329C51.673 100.177 50.4083 102.011 49.147 103.831ZM56.1916 93.4824C57.4865 72.9257 58.7512 52.6714 59.9856 32.7195C59.3349 32.2491 58.6807 31.7843 58.0232 31.3251C58.352 26.1062 58.6841 20.8508 59.0195 15.559C61.3141 18.7677 63.6053 22.0071 65.8931 25.2774C65.6717 29.0852 65.4536 32.8567 65.2389 36.5917C64.5882 36.1101 63.9374 35.6257 63.2866 35.1386C62.2668 52.2738 61.2168 69.745 60.1366 87.5522C58.8216 89.5346 57.5066 91.5113 56.1916 93.4824ZM63.5784 82.3865C64.6653 63.4929 65.7287 44.8737 66.7686 26.5289C68.8686 29.4744 70.9719 32.3443 73.0786 35.1386C72.9713 37.4625 72.8639 39.7612 72.7566 42.0347C71.6764 41.2955 70.5962 40.5479 69.516 39.792C69.3684 42.659 69.2208 45.5261 69.0732 48.3932C70.1534 48.5276 71.2369 48.6648 72.3238 48.8048C72.2232 50.9943 72.1226 53.195 72.0219 55.4069C70.8948 55.8212 69.7676 56.2468 68.6405 56.6836C68.4594 60.1106 68.2782 63.5769 68.0971 67.0823C69.412 65.8056 70.7237 64.5625 72.032 63.3529C71.9179 65.744 71.8005 68.1939 71.6797 70.7026C68.9894 74.4936 66.2889 78.3882 63.5784 82.3865ZM68.0065 26.5289C68.1339 24.2386 68.2614 21.9259 68.3889 19.5909C69.8582 20.2796 71.3107 21.184 72.7465 22.3039C72.6056 25.1486 72.4681 27.9233 72.3339 30.628C70.8981 29.1776 69.4557 27.8113 68.0065 26.5289Z" fill="#C8C8C8"/>
</svg>
