<svg width="360" height="32" viewBox="0 0 360 32" fill="none" xmlns="http://www.w3.org/2000/svg">
<rect width="358" height="32" transform="translate(1)" fill="#2E529D"/>
<rect width="350" height="24" transform="translate(5 4)" fill="#153B89"/>
<g clip-path="url(#clip0_197_3365)">
<path d="M135 20L130 15L131.4 13.55L134 16.15V8H136V16.15L138.6 13.55L140 15L135 20ZM127 24V19H129V22H135H141V19H143V24H127Z" fill="#C8C8C8"/>
</g>
<path d="M154.216 22V10.64H157.544C160.664 10.64 162.376 13.024 162.376 16.304C162.376 19.552 160.504 22 157.512 22H154.216ZM155.704 20.752H157.496C159.64 20.752 160.84 18.656 160.84 16.304C160.84 13.888 159.736 11.888 157.528 11.888H155.704V20.752ZM167.882 22.272C165.114 22.272 163.738 20.208 163.738 16.832V15.808C163.738 12.432 165.114 10.368 167.882 10.368C170.65 10.368 172.026 12.432 172.026 15.808V16.832C172.026 20.208 170.65 22.272 167.882 22.272ZM165.29 16.832C165.29 19.68 166.106 20.992 167.882 20.992C169.658 20.992 170.474 19.68 170.474 16.832V15.808C170.474 12.96 169.658 11.648 167.882 11.648C166.106 11.648 165.29 12.96 165.29 15.808V16.832ZM174.444 22L173.58 10.64H175.068L175.452 18.704C175.516 19.904 175.516 20.48 175.516 20.736H175.676C175.692 20.368 175.756 19.728 175.996 18.592L177.1 13.44H178.508L179.612 18.592C179.852 19.728 179.916 20.368 179.932 20.736H180.092C180.092 20.48 180.092 19.904 180.156 18.704L180.54 10.64H182.028L181.164 22H179.212L178.188 17.12C177.98 16.112 177.916 15.504 177.884 14.848H177.724C177.692 15.504 177.628 16.112 177.42 17.12L176.396 22H174.444ZM189.358 18.368C189.662 19.088 189.838 19.616 189.902 19.856H189.934C189.902 19.472 189.902 19.056 189.902 18.64V10.64H191.39V22H189.646L186.078 13.824C185.806 13.2 185.566 12.48 185.566 12.48H185.518C185.55 12.784 185.55 13.12 185.55 13.456V22H184.062V10.64H186.014L189.358 18.368ZM194.528 10.64H196.016V20.72H201.456V22H194.528V10.64ZM207.569 22.272C204.801 22.272 203.425 20.208 203.425 16.832V15.808C203.425 12.432 204.801 10.368 207.569 10.368C210.337 10.368 211.713 12.432 211.713 15.808V16.832C211.713 20.208 210.337 22.272 207.569 22.272ZM204.977 16.832C204.977 19.68 205.793 20.992 207.569 20.992C209.345 20.992 210.161 19.68 210.161 16.832V15.808C210.161 12.96 209.345 11.648 207.569 11.648C205.793 11.648 204.977 12.96 204.977 15.808V16.832ZM212.995 22L216.643 10.64H218.339L221.987 22H220.515L219.459 18.72H215.507L214.467 22H212.995ZM215.907 17.44H219.059C218.339 15.184 217.811 13.296 217.507 11.952H217.475C217.171 13.296 216.627 15.184 215.907 17.44ZM223.669 22V10.64H226.997C230.117 10.64 231.829 13.024 231.829 16.304C231.829 19.552 229.957 22 226.965 22H223.669ZM225.157 20.752H226.949C229.093 20.752 230.293 18.656 230.293 16.304C230.293 13.888 229.189 11.888 226.981 11.888H225.157V20.752Z" fill="#C8C8C8"/>
<path d="M4.99951 28.0002L355 28L359.058 32.0085L0.989746 32.0087L4.99951 28.0002Z" fill="#0C2557"/>
<defs>
<clipPath id="clip0_197_3365">
<rect width="16" height="16" fill="white" transform="translate(127 8)"/>
</clipPath>
</defs>
</svg>
