<svg width="70" height="50" viewBox="0 0 70 50" fill="none" xmlns="http://www.w3.org/2000/svg">
<path d="M0 49.7295C1.27333 40.5162 1.56333 31.8762 0.87 23.8095C2.79667 22.0962 4.84 20.2962 7 18.4095C7.09333 20.0295 7.17667 21.6395 7.25 23.2395C6.23667 24.1329 5.25 25.0062 4.29 25.8595C4.37667 27.4462 4.43333 29.0495 4.46 30.6695C5.33333 29.8629 6.23667 29.0329 7.17 28.1795C7.12333 29.7195 7.05667 31.2629 6.97 32.8095C6.05 33.7029 5.15667 34.5795 4.29 35.4395C4.11667 37.3995 3.91333 39.3662 3.68 41.3395C4.68 40.2595 5.70333 39.1629 6.75 38.0495C6.55 39.5762 6.34 41.0929 6.12 42.5995C4.01333 45.0395 1.97333 47.4162 0 49.7295ZM1.74 22.2195C1.54667 21.2462 1.34333 20.2795 1.13 19.3195C2.44333 17.0195 3.84333 14.6262 5.33 12.1395C5.51 13.8262 5.68667 15.4962 5.86 17.1495C4.42 18.8895 3.04667 20.5795 1.74 22.2195ZM8.53 39.8495C9.23667 33.7895 9.70333 27.4729 9.93 20.8995C9.27667 21.4595 8.63 22.0162 7.99 22.5695C7.93667 20.9629 7.87 19.3495 7.79 17.7295C10.3567 15.5629 12.9767 13.4062 15.65 11.2595C15.5967 13.0062 15.5367 14.7229 15.47 16.4095C14.7633 16.9562 14.0633 17.5062 13.37 18.0595C13.01 24.5462 12.4867 30.6029 11.8 36.2295C10.7067 37.4362 9.61667 38.6429 8.53 39.8495ZM14.71 33.1295C15.5433 26.4629 16.2067 18.9062 16.7 10.4595C18.6267 9.03953 20.56 7.6662 22.5 6.33953C23.48 5.70953 24.19 5.59953 24.62 5.99953C25.05 6.39953 25.29 7.16953 25.33 8.26953C25.38 9.33953 25.32 10.6095 25.16 12.0695C25 13.4295 24.75 14.5395 24.4 15.4295C24.06 16.2995 23.54 17.0695 22.83 17.7495C23.37 17.5495 23.71 17.6495 23.86 18.0395C24.01 18.4095 24.03 18.9695 23.92 19.7295C23.5467 21.8495 23.17 23.7462 22.79 25.4195C21.67 26.3929 20.5467 27.3995 19.42 28.4395C19.7933 26.4129 20.1567 24.1962 20.51 21.7895C20.58 21.1995 20.53 20.8995 20.33 20.8995C20.15 20.8995 19.82 21.0595 19.37 21.3895C18.9767 24.3895 18.5667 27.1495 18.14 29.6695C16.9933 30.8029 15.85 31.9562 14.71 33.1295ZM19.79 17.4595C20.07 17.2662 20.3567 17.0695 20.65 16.8695C21.14 16.5495 21.46 15.6695 21.6 14.1695C21.69 13.1795 21.7 12.5495 21.61 12.2995C21.53 12.0595 21.33 12.0295 21.03 12.2295C20.7433 12.4162 20.46 12.6062 20.18 12.7995C20.0533 14.3929 19.9233 15.9462 19.79 17.4595ZM23.69 24.6895C25.27 19.1229 26.8967 11.8529 28.57 2.87953C30.7233 1.97953 32.87 1.23286 35.01 0.63953C34.1833 9.37953 33.45 15.8095 32.81 19.9295C31.73 20.1762 30.6467 20.5062 29.56 20.9195C29.66 20.5462 29.7567 20.1129 29.85 19.6195C29.15 19.9062 28.4567 20.2129 27.77 20.5395C27.5233 21.1729 27.2767 21.7562 27.03 22.2895C25.9167 23.0429 24.8033 23.8429 23.69 24.6895ZM28.53 18.2095C29.0567 17.9962 29.5833 17.7962 30.11 17.6095C30.45 14.5162 30.8 10.8795 31.16 6.69953C31.1067 6.71286 31.05 6.72953 30.99 6.74953C30.15 11.0895 29.33 14.9095 28.53 18.2095ZM33.87 19.8295C35.0833 15.6629 36.4367 9.14286 37.93 0.269531C39.1967 0.276198 40.4567 0.349529 41.71 0.489529C41.43 5.3762 41.18 9.78286 40.96 13.7095C41.72 9.8962 42.5267 5.60286 43.38 0.829529C44.54 1.16953 45.6933 1.55953 46.84 1.99953C45.0533 10.8462 43.5067 17.7629 42.2 22.7495C41.1067 22.0629 40.01 21.4395 38.91 20.8795C38.9367 19.0395 39 16.6729 39.1 13.7795C38.4333 16.5462 37.8033 18.7029 37.21 20.2495C36.0967 20.0162 34.9833 19.8762 33.87 19.8295ZM47.07 26.8395C44.72 24.7695 43.87 22.6695 44.65 19.7295C45.2767 16.9895 45.9533 13.9162 46.68 10.5095C47.74 5.25953 49.75 3.09953 52.55 4.80953C53.69 5.58953 54.46 6.62953 54.87 7.86953C55.25 9.10953 55.39 10.5295 55.26 12.1695C55.13 13.7495 54.84 15.5095 54.4 17.4395C53.3733 16.6462 52.3367 15.8762 51.29 15.1295C51.4567 14.3829 51.6267 13.6195 51.8 12.8395C51.93 12.2695 51.99 11.7495 51.97 11.3095C51.97 10.8295 51.82 10.5095 51.51 10.3095C51.13 10.0595 50.83 10.1095 50.61 10.4695C50.39 10.7995 50.23 11.2295 50.13 11.7095C49.27 15.6362 48.4867 19.1995 47.78 22.3995C47.67 22.8795 47.65 23.2795 47.7 23.6595C47.75 24.0195 47.95 24.3495 48.28 24.6195C48.62 24.8995 48.87 24.9395 49.05 24.7595C49.23 24.5495 49.37 24.1995 49.48 23.6995C49.6733 22.7929 49.8733 21.8562 50.08 20.8895C49.7933 20.6762 49.5067 20.4662 49.22 20.2595C49.4867 19.0329 49.7633 17.7662 50.05 16.4595C51.3567 17.3795 52.65 18.3395 53.93 19.3395C53.0367 23.6595 52.27 27.6262 51.63 31.2395C51.1967 30.7862 50.7667 30.3362 50.34 29.8895C50.2467 29.2495 50.1533 28.6129 50.06 27.9795C49.3 28.4295 48.3 28.0095 47.07 26.8395ZM52.89 32.5995C54.11 25.7462 55.7733 17.9329 57.88 9.15953C59.94 10.9862 61.93 12.8495 63.85 14.7495C63.2833 16.5095 62.74 18.2529 62.22 19.9795C61.3467 19.0795 60.45 18.1795 59.53 17.2795C59.09 18.9929 58.6733 20.6829 58.28 22.3495C59.1467 23.2162 59.99 24.0895 60.81 24.9695C60.47 26.5562 60.16 28.1329 59.88 29.6995C59.0533 28.7795 58.2067 27.8629 57.34 26.9495C57.0333 28.7162 56.7567 30.4462 56.51 32.1395C57.5033 33.2729 58.48 34.4062 59.44 35.5395C59.3133 37.0395 59.2067 38.5195 59.12 39.9795C57.0933 37.4929 55.0167 35.0329 52.89 32.5995ZM60.06 41.1895C60.8867 33.1029 62.51 24.6662 64.93 15.8795C66.1967 17.3262 67.38 18.7495 68.48 20.1495C68.96 20.8195 69.14 21.6095 69.05 22.5395C68.94 23.4495 68.65 24.4795 68.2 25.6395C67.77 26.8195 67.29 28.1295 66.77 29.5995C66.34 31.0495 66.02 32.1395 65.78 32.8495C65.55 33.5795 65.32 33.8895 65.05 33.7695C65.21 34.3195 65.27 35.0095 65.26 35.8595C65.26 36.6895 65.24 37.6595 65.19 38.7695C65.2967 42.3629 65.54 45.9562 65.92 49.5495C65.2133 48.4362 64.4733 47.3095 63.7 46.1695C63.6067 42.7429 63.6367 39.2895 63.79 35.8095C63.87 35.0295 63.87 34.4695 63.79 34.1195C63.71 33.7795 63.55 33.3995 63.29 33.0295C62.95 37.0095 62.7733 40.9429 62.76 44.8295C61.8867 43.6295 60.9867 42.4162 60.06 41.1895ZM64.16 28.4795C64.3067 28.6995 64.45 28.9129 64.59 29.1195C64.82 29.4795 65.13 28.8695 65.57 27.2695C65.88 26.2495 66.07 25.5295 66.13 25.1395C66.19 24.7595 66.14 24.4395 65.99 24.2195C65.8433 24.0195 65.6967 23.8195 65.55 23.6195C65.0433 25.2395 64.58 26.8595 64.16 28.4795Z" fill="#C8C8C8"/>
</svg>
