<svg width="104" height="76" viewBox="0 0 104 76" fill="none" xmlns="http://www.w3.org/2000/svg">
<path d="M0 75.0953C1.91 61.2753 2.345 48.3153 1.305 36.2153C4.195 33.6453 7.26 30.9453 10.5 28.1153C10.64 30.5453 10.765 32.9603 10.875 35.3603C9.355 36.7003 7.875 38.0103 6.435 39.2903C6.565 41.6703 6.65 44.0753 6.69 46.5053C8 45.2953 9.355 44.0503 10.755 42.7703C10.685 45.0803 10.585 47.3953 10.455 49.7153C9.075 51.0553 7.735 52.3703 6.435 53.6603C6.175 56.6003 5.87 59.5503 5.52 62.5103C7.02 60.8903 8.555 59.2453 10.125 57.5753C9.825 59.8653 9.51 62.1403 9.18 64.4003C6.02 68.0603 2.96 71.6253 0 75.0953ZM2.61 33.8303C2.32 32.3703 2.015 30.9203 1.695 29.4803C3.665 26.0303 5.765 22.4403 7.995 18.7103C8.265 21.2403 8.53 23.7453 8.79 26.2253C6.63 28.8353 4.57 31.3703 2.61 33.8303ZM12.795 60.2753C13.855 51.1853 14.555 41.7103 14.895 31.8503C13.915 32.6903 12.945 33.5253 11.985 34.3553C11.905 31.9453 11.805 29.5253 11.685 27.0953C15.535 23.8453 19.465 20.6103 23.475 17.3903C23.395 20.0103 23.305 22.5853 23.205 25.1153C22.145 25.9353 21.095 26.7603 20.055 27.5903C19.515 37.3203 18.73 46.4053 17.7 54.8453C16.06 56.6553 14.425 58.4653 12.795 60.2753ZM22.065 50.1953C23.315 40.1953 24.31 28.8603 25.05 16.1903C27.94 14.0603 30.84 12.0003 33.75 10.0103C35.22 9.06527 36.285 8.90027 36.93 9.50027C37.575 10.1003 37.935 11.2553 37.995 12.9053C38.07 14.5103 37.98 16.4153 37.74 18.6053C37.5 20.6453 37.125 22.3103 36.6 23.6453C36.09 24.9503 35.31 26.1053 34.245 27.1253C35.055 26.8253 35.565 26.9753 35.79 27.5603C36.015 28.1153 36.045 28.9553 35.88 30.0953C35.32 33.2753 34.755 36.1203 34.185 38.6303C32.505 40.0903 30.82 41.6003 29.13 43.1603C29.69 40.1203 30.235 36.7953 30.765 33.1853C30.87 32.3003 30.795 31.8503 30.495 31.8503C30.225 31.8503 29.73 32.0903 29.055 32.5853C28.465 37.0853 27.85 41.2253 27.21 45.0053C25.49 46.7053 23.775 48.4353 22.065 50.1953ZM29.685 26.6903C30.105 26.4003 30.535 26.1053 30.975 25.8053C31.71 25.3253 32.19 24.0053 32.4 21.7553C32.535 20.2703 32.55 19.3253 32.415 18.9503C32.295 18.5903 31.995 18.5453 31.545 18.8453C31.115 19.1253 30.69 19.4103 30.27 19.7003C30.08 22.0903 29.885 24.4203 29.685 26.6903ZM35.535 37.5353C37.905 29.1853 40.345 18.2803 42.855 4.82027C46.085 3.47027 49.305 2.35027 52.515 1.46027C51.275 14.5703 50.175 24.2153 49.215 30.3953C47.595 30.7653 45.97 31.2603 44.34 31.8803C44.49 31.3203 44.635 30.6703 44.775 29.9303C43.725 30.3603 42.685 30.8203 41.655 31.3103C41.285 32.2603 40.915 33.1353 40.545 33.9353C38.875 35.0653 37.205 36.2653 35.535 37.5353ZM42.795 27.8153C43.585 27.4953 44.375 27.1953 45.165 26.9153C45.675 22.2753 46.2 16.8203 46.74 10.5503C46.66 10.5703 46.575 10.5953 46.485 10.6253C45.225 17.1353 43.995 22.8653 42.795 27.8153ZM50.805 30.2453C52.625 23.9953 54.655 14.2153 56.895 0.905273C58.795 0.915273 60.685 1.02527 62.565 1.23527C62.145 8.56527 61.77 15.1753 61.44 21.0653C62.58 15.3453 63.79 8.90527 65.07 1.74527C66.81 2.25527 68.54 2.84027 70.26 3.50027C67.58 16.7703 65.26 27.1453 63.3 34.6253C61.66 33.5953 60.015 32.6603 58.365 31.8203C58.405 29.0603 58.5 25.5103 58.65 21.1703C57.65 25.3203 56.705 28.5553 55.815 30.8753C54.145 30.5253 52.475 30.3153 50.805 30.2453ZM70.605 40.7603C67.08 37.6553 65.805 34.5053 66.975 30.0953C67.915 25.9853 68.93 21.3753 70.02 16.2653C71.61 8.39027 74.625 5.15027 78.825 7.71527C80.535 8.88527 81.69 10.4453 82.305 12.3053C82.875 14.1653 83.085 16.2953 82.89 18.7553C82.695 21.1253 82.26 23.7653 81.6 26.6603C80.06 25.4703 78.505 24.3153 76.935 23.1953C77.185 22.0753 77.44 20.9303 77.7 19.7603C77.895 18.9053 77.985 18.1253 77.955 17.4653C77.955 16.7453 77.73 16.2653 77.265 15.9653C76.695 15.5903 76.245 15.6653 75.915 16.2053C75.585 16.7003 75.345 17.3453 75.195 18.0653C73.905 23.9553 72.73 29.3003 71.67 34.1003C71.505 34.8203 71.475 35.4203 71.55 35.9903C71.625 36.5303 71.925 37.0253 72.42 37.4303C72.93 37.8503 73.305 37.9103 73.575 37.6403C73.845 37.3253 74.055 36.8003 74.22 36.0503C74.51 34.6903 74.81 33.2853 75.12 31.8353C74.69 31.5153 74.26 31.2003 73.83 30.8903C74.23 29.0503 74.645 27.1503 75.075 25.1903C77.035 26.5703 78.975 28.0103 80.895 29.5103C79.555 35.9903 78.405 41.9403 77.445 47.3603C76.795 46.6803 76.15 46.0053 75.51 45.3353C75.37 44.3753 75.23 43.4203 75.09 42.4703C73.95 43.1453 72.45 42.5153 70.605 40.7603ZM79.335 49.4003C81.165 39.1203 83.66 27.4003 86.82 14.2403C89.91 16.9803 92.895 19.7753 95.775 22.6253C94.925 25.2653 94.11 27.8803 93.33 30.4703C92.02 29.1203 90.675 27.7703 89.295 26.4203C88.635 28.9903 88.01 31.5253 87.42 34.0253C88.72 35.3253 89.985 36.6353 91.215 37.9553C90.705 40.3353 90.24 42.7003 89.82 45.0503C88.58 43.6703 87.31 42.2953 86.01 40.9253C85.55 43.5753 85.135 46.1703 84.765 48.7103C86.255 50.4103 87.72 52.1103 89.16 53.8103C88.97 56.0603 88.81 58.2803 88.68 60.4703C85.64 56.7403 82.525 53.0503 79.335 49.4003ZM90.09 62.2853C91.33 50.1553 93.765 37.5003 97.395 24.3203C99.295 26.4903 101.07 28.6253 102.72 30.7253C103.44 31.7303 103.71 32.9153 103.575 34.3103C103.41 35.6753 102.975 37.2203 102.3 38.9603C101.655 40.7303 100.935 42.6953 100.155 44.9003C99.51 47.0753 99.03 48.7103 98.67 49.7753C98.325 50.8703 97.98 51.3353 97.575 51.1553C97.815 51.9803 97.905 53.0153 97.89 54.2903C97.89 55.5353 97.86 56.9903 97.785 58.6553C97.945 64.0453 98.31 69.4353 98.88 74.8253C97.82 73.1553 96.71 71.4653 95.55 69.7553C95.41 64.6153 95.455 59.4353 95.685 54.2153C95.805 53.0453 95.805 52.2053 95.685 51.6803C95.565 51.1703 95.325 50.6003 94.935 50.0453C94.425 56.0153 94.16 61.9153 94.14 67.7453C92.83 65.9453 91.48 64.1253 90.09 62.2853ZM96.24 43.2203C96.46 43.5503 96.675 43.8703 96.885 44.1803C97.23 44.7203 97.695 43.8053 98.355 41.4053C98.82 39.8753 99.105 38.7953 99.195 38.2103C99.285 37.6403 99.21 37.1603 98.985 36.8303C98.765 36.5303 98.545 36.2303 98.325 35.9303C97.565 38.3603 96.87 40.7903 96.24 43.2203Z" fill="#C8C8C8"/>
</svg>
