<svg width="191" height="16" viewBox="0 0 191 16" fill="none" xmlns="http://www.w3.org/2000/svg">
<path d="M12.5222 14.6403C-4.49779 10.3136 -4.16779 5.85031 13.5122 1.25031C24.9722 1.15031 35.1655 1.05697 44.0922 0.970307C41.2922 1.85031 38.7089 2.72364 36.3422 3.59031C31.2355 3.64364 25.7689 3.70031 19.9422 3.76031C17.7889 4.47364 15.9189 5.19031 14.3322 5.91031C20.4522 5.84364 26.2089 5.77697 31.6022 5.71031C30.8422 6.55697 30.4355 7.40031 30.3822 8.24031C24.8422 8.31364 18.9189 8.39031 12.6122 8.47031C16.2655 10.437 22.0922 12.3803 30.0922 14.3003C24.6455 14.4136 18.7889 14.527 12.5222 14.6403ZM47.3722 13.8803C39.8989 9.66031 40.0522 5.34697 47.8322 0.940307C53.0722 0.89364 57.9822 0.846974 62.5622 0.800307C64.6722 0.780307 65.9422 0.920307 66.4822 1.22031C67.0522 1.51031 67.1422 1.93031 66.7922 2.46031C66.5322 2.99031 66.0522 3.62031 65.4222 4.34031C64.9322 5.04031 64.3222 5.59031 63.5222 6.01031C62.7822 6.43031 61.4922 6.74031 59.6222 6.92031C61.1322 6.98031 62.1722 7.16031 62.7822 7.46031C63.4022 7.75031 63.7922 8.14031 63.9722 8.63031C65.1789 10.1703 66.8489 11.6936 68.9822 13.2003C66.4222 13.287 63.7722 13.377 61.0322 13.4703C58.0655 11.8836 55.7722 10.2803 54.1522 8.66031C53.9922 8.29031 53.6022 8.07031 52.9022 7.99031C52.2322 7.91031 51.1322 7.88031 49.5822 7.91031C51.2089 9.81697 53.8955 11.707 57.6422 13.5803C54.3755 13.6736 50.9522 13.7736 47.3722 13.8803ZM50.2522 5.68031C51.1855 5.66697 52.0955 5.65697 52.9822 5.65031C54.4922 5.63031 55.4822 5.23031 56.2022 4.45031C56.7722 3.95031 57.0522 3.62031 56.9822 3.46031C56.8722 3.31031 56.4422 3.24031 55.5922 3.25031C54.7989 3.25697 53.9922 3.26364 53.1722 3.27031C52.0189 4.07697 51.0455 4.88031 50.2522 5.68031ZM80.0722 12.9203C77.4822 13.0103 75.0722 12.8103 72.8522 12.2903C70.5922 11.7703 68.8322 10.9603 67.8522 9.86031C67.1789 7.92031 67.2822 5.95031 68.1622 3.95031C69.1722 2.86031 70.9022 2.03031 73.0922 1.44031C75.2622 0.860307 77.6222 0.560307 80.2122 0.540307C82.7022 0.530307 84.3522 0.800307 85.2022 1.36031C86.1422 1.92031 86.3922 2.72031 85.9522 3.79031C85.5722 5.72364 85.5289 7.62697 85.8222 9.50031C86.2522 10.5503 86.0022 11.3503 85.0422 11.9303C84.1822 12.5103 82.5622 12.8303 80.0722 12.9203ZM78.1722 10.8003C79.2222 10.7803 79.5122 10.4203 79.1222 9.73031C78.6689 7.78364 78.7255 5.80364 79.2922 3.79031C79.6322 3.18031 79.3122 2.88031 78.3122 2.88031C77.1322 2.89031 76.3222 3.22031 75.9122 3.85031C75.2589 5.87031 75.2022 7.85697 75.7422 9.81031C75.9722 10.1903 76.2822 10.4403 76.6722 10.6003C77.0522 10.7503 77.5622 10.8203 78.1722 10.8003ZM89.8122 12.5203C88.6189 8.70031 88.6455 4.73364 89.8922 0.620307C91.8322 0.620307 93.7555 0.620307 95.6622 0.620307C96.0689 2.60697 96.6589 4.57031 97.4322 6.51031C97.5722 4.57697 97.8255 2.61364 98.1922 0.620307C99.9455 0.626974 101.696 0.636974 103.442 0.650307C103.382 4.73697 103.382 8.65031 103.442 12.3903C101.662 12.377 99.8789 12.3736 98.0922 12.3803C96.7255 10.5603 95.4455 8.68697 94.2522 6.76031C94.4322 8.69364 94.7922 10.577 95.3322 12.4103C93.5055 12.437 91.6655 12.4736 89.8122 12.5203ZM108.232 12.4603C108.546 9.46697 108.639 6.35031 108.512 3.11031C107.346 3.09031 106.182 3.07697 105.022 3.07031C105.002 2.27697 104.982 1.47364 104.962 0.660307C108.969 0.700307 113.042 0.75364 117.182 0.820307C117.562 1.64697 117.909 2.46364 118.222 3.27031C116.982 3.24364 115.752 3.22031 114.532 3.20031C114.839 6.46031 114.602 9.59697 113.822 12.6103C111.942 12.557 110.079 12.507 108.232 12.4603ZM118.622 12.7803C119.882 8.99364 119.856 5.01364 118.542 0.840307C120.469 0.880307 122.429 0.92364 124.422 0.970307C126.396 5.19031 126.436 9.20697 124.542 13.0203C122.536 12.9336 120.562 12.8536 118.622 12.7803ZM127.122 13.1303C129.322 9.31031 129.276 5.27697 126.982 1.03031C131.582 1.15697 136.499 1.30031 141.732 1.46031C143.212 2.35364 144.579 3.24364 145.832 4.13031C142.746 4.01697 139.782 3.91031 136.942 3.81031C137.629 4.65697 138.196 5.49364 138.642 6.32031C141.562 6.43364 144.612 6.55364 147.792 6.68031C148.046 7.47364 148.132 8.25697 148.052 9.03031C144.846 8.89031 141.769 8.76031 138.822 8.64031C138.416 9.54031 137.839 10.4303 137.092 11.3103C140.146 11.4436 143.342 11.587 146.682 11.7403C145.436 12.4536 144.059 13.1603 142.552 13.8603C137.072 13.5936 131.929 13.3503 127.122 13.1303ZM145.522 14.0103C150.596 10.2103 150.492 6.07031 145.212 1.59031C150.172 1.77031 155.569 1.97697 161.402 2.21031C164.672 2.34031 167.902 2.63031 171.092 3.08031C174.432 3.54031 177.722 4.13031 180.792 4.83031C183.832 5.53031 186.612 6.30031 188.922 7.16031C190.742 7.96031 191.072 8.54031 190.082 8.91031C189.052 9.28031 186.462 9.44031 182.692 9.41031C185.882 9.65031 188.172 9.96031 189.532 10.3503C190.802 10.7203 191.192 11.1503 190.542 11.6103C186.309 12.977 180.682 14.2603 173.662 15.4603C168.889 15.207 164.376 14.9703 160.122 14.7503C165.156 13.4103 169.102 12.007 171.962 10.5403C172.252 10.1903 171.902 9.94031 170.942 9.81031C170.042 9.68031 168.542 9.56031 166.492 9.46031C164.272 11.2336 160.679 12.9236 155.712 14.5303C152.152 14.3436 148.756 14.1703 145.522 14.0103ZM165.742 7.23031C166.962 7.29031 168.189 7.34697 169.422 7.40031C171.662 7.51031 172.292 7.16031 170.952 6.31031C169.892 5.76031 168.852 5.38031 168.022 5.18031C167.212 4.99031 166.162 4.86031 164.962 4.81031C163.882 4.76364 162.819 4.71697 161.772 4.67031C163.339 5.53697 164.662 6.39031 165.742 7.23031Z" fill="#C8C8C8"/>
</svg>
