<svg width="81" height="51" viewBox="0 0 81 51" fill="none" xmlns="http://www.w3.org/2000/svg">
<path d="M78.8281 1.5L78.124 3.49805L62.2764 48.498L61.9238 49.5H2.90625L3.58008 47.5176L18.8652 2.51758L19.2109 1.5H78.8281Z" fill="#FAD605" stroke="#1F1E1E" stroke-width="3"/>
<path d="M36.4143 30.6141L42.203 9.56568L49.4341 9.56568L42.203 30.6141L36.4143 30.6141ZM36.4108 42.1662C35.1245 42.068 34.2455 41.6775 33.7739 40.9946C33.3046 40.2811 33.1004 39.5261 33.1611 38.7298C33.2172 37.9947 33.4241 37.302 33.7818 36.6515C34.1418 35.9704 34.6751 35.4412 35.3817 35.0638C36.0882 34.6865 36.9928 34.5398 38.0954 34.624C39.1061 34.7011 39.8955 35.054 40.4637 35.6827C41.0342 36.2807 41.2797 37.1004 41.2002 38.1418C41.1044 39.3975 40.6115 40.4073 39.7214 41.1712C38.862 41.9373 37.7585 42.269 36.4108 42.1662Z" fill="#1F1E1E"/>
</svg>
