<svg width="120" height="32" viewBox="0 0 120 32" fill="none" xmlns="http://www.w3.org/2000/svg">
<g clip-path="url(#clip0_123_19317)">
<path d="M15.7145 1.08776C20.1687 12.3585 2.71719 19.8157 7.93412 30.8587C5.11115 30.9911 3.70231 31.06 0.879345 31.1977C-4.10984 19.7416 13.8872 12.4538 9.7084 0.801758C12.113 0.918278 13.3152 0.976538 15.7198 1.08776H15.7145Z" fill="#789FF2"/>
<path d="M18.1294 1.20508C19.9302 1.28982 20.8253 1.33219 22.6261 1.42223C25.5285 1.55994 27.5941 1.81946 28.7857 2.1902C29.9774 2.56095 31.0208 3.12766 31.7623 3.88504C32.5091 4.64243 32.9593 5.47396 33.0705 6.37964C33.1764 7.28532 33.0281 9.05431 31.7835 11.7078C29.9404 15.6271 28.1555 17.5974 26.6831 21.5485C25.7403 24.0801 25.7033 25.7803 25.5867 26.6489C25.4649 27.5175 25.2901 28.206 24.9141 28.7145C24.538 29.2282 24.019 29.599 23.2881 29.8373C22.5572 30.0703 21.3549 30.2292 19.6654 30.314C16.1062 30.4834 14.3266 30.5682 10.7675 30.7377C5.4605 19.8483 22.6896 12.3222 18.1294 1.20508ZM25.1789 6.37964C23.6377 13.392 18.246 18.3494 16.763 25.3883C17.7587 25.3566 18.389 25.1182 18.6856 24.6786C18.9822 24.239 19.2787 23.0526 20.1262 21.1248C22.1017 16.644 24.3739 14.4142 26.1852 9.97588C26.7149 8.68356 26.8526 7.85733 26.8579 7.49188C26.8632 7.12643 26.7413 6.85631 26.5189 6.67623C26.2964 6.50145 25.8463 6.40082 25.1736 6.37964H25.1789Z" fill="#789FF2"/>
<path d="M34.2887 1.97837C38.2981 2.16904 40.3001 2.26437 44.3095 2.46034C45.7766 4.58948 45.9354 5.65935 45.7766 7.79379C44.1294 7.74612 43.3031 7.72493 41.656 7.67727C41.4547 9.73226 41.0151 10.7598 40.0512 12.82C41.6507 12.8359 42.4504 12.8412 44.0446 12.8571C43.139 14.8962 42.5246 15.9184 41.5659 17.9575C39.9082 17.9734 39.0766 17.9787 37.4189 17.9946C36.2378 20.3939 35.6552 21.5908 35.4274 23.9954C37.4507 23.9371 38.4623 23.9054 40.4908 23.8471C40.3425 25.9974 40.5014 27.0726 41.9791 29.2282C37.0852 29.4613 34.6383 29.5778 29.7444 29.8108C27.7848 19.1068 36.2484 12.6612 34.294 1.96777L34.2887 1.97837Z" fill="#789FF2"/>
<path d="M59.8542 3.20141C65.9027 11.146 54.7962 19.795 59.7536 28.3857C57.2802 28.5022 56.0408 28.5658 53.5674 28.6823C48.5835 24.0638 49.3992 21.7228 50.1407 16.9879C48.0327 21.7281 46.4332 24.1009 49.897 28.8571C47.5349 28.9683 46.3591 29.0265 43.9969 29.1378C41.444 19.1011 48.9967 12.6025 46.4332 2.56055C48.4405 2.65588 49.4469 2.70355 51.4595 2.79888C56.2315 7.53914 55.3841 9.88544 54.8862 14.5198C56.8353 9.89073 58.3077 7.58151 54.828 2.96307C56.8406 3.05841 57.8416 3.10607 59.8542 3.20141Z" fill="#789FF2"/>
<path d="M74.3719 3.89507C76.0667 5.80176 76.4057 6.75511 76.6599 8.65651C75.1928 8.61414 74.4619 8.59295 72.9949 8.55588C72.7618 15.1446 67.8362 21.6644 72.6082 27.7711C69.7852 27.9035 68.3764 27.9724 65.5534 28.1101C60.9297 21.6962 66.2737 15.0969 66.8193 8.38639C65.3575 8.34402 64.6266 8.32284 63.1701 8.28576C63.0959 6.27844 62.8364 5.27742 61.2422 3.27539C66.4962 3.52432 69.1232 3.65143 74.3772 3.90566L74.3719 3.89507Z" fill="#789FF2"/>
<path d="M81.7546 4.24987C88.3009 10.7909 79.8267 19.9483 85.462 27.1567C82.639 27.2891 81.2302 27.358 78.4072 27.4957C72.9414 19.9166 82.1783 10.8809 75.7432 3.96387C78.1477 4.08039 79.35 4.13865 81.7546 4.24987Z" fill="#789FF2"/>
<path d="M96.2722 4.94375C98.1313 6.68625 98.5973 7.55486 99.1535 9.28677C97.6864 9.2444 96.9554 9.22322 95.4884 9.18614C96.4311 15.3035 93.0944 21.532 98.3113 26.5371C95.4884 26.6695 94.0795 26.7383 91.2566 26.876C86.1456 21.5744 89.9272 15.2664 89.3128 9.01136C87.851 8.96899 87.1201 8.94781 85.6636 8.91073C85.2875 7.07818 84.9009 6.15662 83.1372 4.31348C88.3912 4.56241 91.0182 4.68952 96.2722 4.94375Z" fill="#789FF2"/>
<path d="M111.176 5.65311C115.704 10.78 112.426 13.3434 110.938 18.518C111.203 21.4363 111.377 22.8822 114.857 25.7476C112.241 25.8747 110.938 25.9329 108.321 26.06C104.916 23.1047 104.826 21.6111 104.725 18.608C103.274 12.3848 101.415 9.66247 97.0029 4.98047C99.2115 5.0864 100.313 5.13936 102.522 5.24529C108.03 9.42943 107.659 12.1465 107.813 13.5447C108.109 11.3414 108.634 8.61908 105.657 5.39359C107.866 5.49951 108.967 5.55248 111.176 5.65841V5.65311Z" fill="#789FF2"/>
</g>
<defs>
<clipPath id="clip0_123_19317">
<rect width="120" height="30.3959" fill="white" transform="translate(0 0.801758)"/>
</clipPath>
</defs>
</svg>
