<svg width="124" height="40" viewBox="0 0 124 40" fill="none" xmlns="http://www.w3.org/2000/svg">
<path d="M4.93835 3.43555C11.3469 13.76 16.9227 26.947 23.2371 37.634C22.1509 37.6149 21.6151 37.5959 20.5289 37.5768C13.8017 26.3363 7.27728 14.5233 0.492188 3.53097C2.26631 3.4928 3.15699 3.47371 4.9311 3.43555H4.93835Z" fill="#F6F6F6"/>
<path d="M16.6331 3.16797C23.4833 16.813 23.5557 23.7214 30.3698 37.7672C29.4212 37.7481 28.9433 37.729 27.9947 37.71C24.0554 31.3359 22.5492 28.168 19.1748 21.9084C21.8178 28.168 23.0489 31.3168 26.5826 37.6909C25.6774 37.6718 25.2212 37.6527 24.3161 37.6336C18.2189 26.9657 12.911 13.7405 6.71973 3.39698C8.20419 3.35881 8.95005 3.33972 10.4345 3.32064C14.9458 9.38934 16.5896 12.4619 19.8554 18.6451C17.4079 12.4428 16.271 9.37026 12.9255 3.26339C14.41 3.22522 15.1558 3.20614 16.6403 3.18705L16.6331 3.16797Z" fill="#F6F6F6"/>
<path d="M30.949 13.4353C29.4935 13.4353 28.7694 13.4544 27.3139 13.4735C27.017 12.4429 26.8577 11.9277 26.5391 10.8971C26.1625 9.69484 25.8584 8.93148 25.6484 8.60706C25.4384 8.28263 25.2139 8.12996 24.9822 8.12996C24.7288 8.12996 24.6201 8.35896 24.6419 8.7979C24.6708 9.23683 24.8374 9.90477 25.1343 10.8017C25.5181 11.9468 25.8584 12.8246 26.1698 13.4162C26.4811 13.9887 27.0604 14.6948 27.886 15.5345C30.2466 17.9009 31.6876 19.8857 32.4407 21.4124C33.1938 22.9391 33.8962 25.4391 34.758 28.8933C35.3807 31.3933 35.8224 33.2445 36.0035 34.4467C36.1845 35.649 36.1845 36.6223 35.9817 37.4238C35.779 38.2254 35.3807 38.6071 34.729 38.588C34.0121 38.588 33.2011 38.0918 32.2742 37.1567C31.3545 36.2216 30.4928 35.0384 29.7397 33.6071C28.9866 32.1758 28.1104 30.1529 27.1908 27.5384C26.8649 26.6223 26.7129 26.1643 26.4015 25.2483C27.6398 25.2483 28.2553 25.2483 29.4935 25.2483C29.9932 26.9467 30.2466 27.8055 30.797 29.504C31.217 30.8208 31.5501 31.6605 31.7528 32.0422C31.9628 32.4239 32.1656 32.6147 32.3611 32.6147C32.5566 32.6147 32.6218 32.3857 32.5638 31.9086C32.5059 31.4315 32.3321 30.7254 32.0425 29.7903C31.4125 27.7292 30.949 26.3742 30.5652 25.7445C30.1815 25.1147 29.3632 24.046 28.0742 22.5765C26.778 21.088 25.8367 20.0002 25.337 19.3322C24.8301 18.6643 24.287 17.7292 23.686 16.5651C23.0922 15.3819 22.4695 13.8742 21.796 12.0613C20.8257 9.42767 20.174 7.50019 19.9785 6.27881C19.7829 5.05744 19.8771 4.10324 20.3116 3.39713C20.746 2.69103 21.4919 2.32843 22.5564 2.30935C23.7222 2.29026 24.8736 2.63377 25.9743 3.37805C27.0749 4.12232 27.9366 5.05744 28.5666 6.20248C29.1894 7.34751 29.9063 9.29408 30.6087 12.0613C30.7463 12.6147 30.8187 12.8819 30.949 13.4353Z" fill="#F6F6F6"/>
<path d="M39.6748 2.67188C41.869 12.0803 41.63 16.794 42.6003 26.2787C42.8755 28.9696 43.1 30.8589 43.2086 31.9467C43.3172 33.0345 43.3317 34.1604 43.2955 35.3055C43.2593 36.4505 43.1217 37.3093 42.861 37.9009C42.6003 38.4925 42.2021 38.7787 41.6517 38.7597C41.0362 38.7597 40.3917 38.378 39.6966 37.6719C39.0014 36.9658 38.3569 36.0497 37.7849 34.9238C37.2128 33.7978 36.7349 32.6146 36.3728 31.3742C36.0107 30.1337 35.3518 27.5192 34.5408 23.5497C32.8391 15.2291 32.3973 11.107 29.5298 2.90088C31.3039 2.86271 32.1946 2.84363 33.9687 2.80546C37.0897 13.2826 36.9304 18.5497 38.8928 29.1604C39.1752 30.7062 39.4142 31.6986 39.559 32.1184C39.7038 32.5383 39.8631 32.7673 40.0224 32.7673C40.2107 32.7673 40.2831 32.5383 40.2397 32.0612C40.1962 31.5841 40.0079 30.4581 39.7111 28.7024C37.9659 18.2635 38.1614 13.0726 35.2432 2.78638C37.0173 2.74821 37.908 2.72913 39.6821 2.69096L39.6748 2.67188Z" fill="#F6F6F6"/>
<path d="M41.3984 2.63345C42.6583 2.61437 43.2811 2.59528 44.5411 2.55712C46.6338 2.51895 48.0821 2.65254 48.8641 2.97696C49.6462 3.30139 50.3414 4.14109 50.8845 5.53422C51.4276 6.90826 51.7244 9.122 51.6882 12.1754C51.652 14.9617 51.4276 16.8319 51.1162 17.7861C50.812 18.7403 50.2617 19.3128 49.4652 19.5228C50.1748 19.9808 50.631 20.5915 50.841 21.3548C51.051 22.1182 51.1741 22.8243 51.2031 23.4731C51.2393 24.122 51.1813 25.8777 51.1524 28.7785C51.1162 32.5571 51.1379 34.4655 51.5289 38.2441C50.5224 38.2251 50.0227 38.206 49.0162 38.1869C48.3138 33.4159 48.2486 31.0495 48.1545 26.2976C48.1183 24.3892 48.0603 23.206 47.9445 22.748C47.8286 22.2899 47.5317 22.0609 47.0466 22.0609C47.1697 28.4922 47.1479 31.7174 48.1835 38.1678C47.0973 38.1487 46.5614 38.1296 45.4752 38.1106C42.4773 23.8167 44.4035 16.7365 41.3911 2.63345H41.3984ZM46.5614 8.60674C46.8148 11.7747 46.8655 13.3396 46.9379 16.5075C47.3579 16.5075 47.6548 16.3548 47.8214 16.0686C47.9879 15.7823 48.0676 14.8472 48.0314 13.2823C48.0097 12.4999 48.0024 12.0991 47.9662 11.3167C47.9228 10.1907 47.7852 9.44643 47.5897 9.10292C47.3869 8.75941 47.0466 8.58765 46.5686 8.58765L46.5614 8.60674Z" fill="#F6F6F6"/>
<path d="M53.0278 2.36685C54.2878 2.34777 54.9106 2.32868 56.1706 2.29052C58.2633 2.25235 59.6898 2.38593 60.4285 2.71036C61.1671 3.03479 61.7536 3.89357 62.1229 5.30578C62.4922 6.718 62.5067 8.95082 62.0795 12.0424C61.6884 14.8669 61.225 16.7562 60.7905 17.7294C60.3633 18.7027 59.7405 19.2752 58.9223 19.4852C59.574 19.9432 59.9505 20.5539 60.0664 21.3363C60.1822 22.1188 60.2112 22.8249 60.1605 23.4737C60.1098 24.1226 59.8274 25.9165 59.4364 28.8363C58.9223 32.6531 58.705 34.5615 58.6181 38.3974C57.6116 38.3783 57.1119 38.3592 56.1054 38.3401C56.004 33.531 56.2357 31.1455 56.7499 26.3363C56.9599 24.4088 57.054 23.2065 56.9961 22.7485C56.9381 22.2905 56.6702 22.0615 56.1851 22.0615C55.4826 28.5691 55.0482 31.8134 55.2871 38.321C54.2009 38.302 53.6651 38.2829 52.5789 38.2638C51.3768 23.8745 54.2444 16.6798 53.0351 2.36685H53.0278ZM57.4233 8.43555C57.2785 11.6417 57.1192 13.2447 56.7933 16.4508C57.2133 16.4508 57.5247 16.2981 57.7275 16.0119C57.9302 15.7256 58.133 14.7714 58.2923 13.1875C58.3719 12.3859 58.4081 12.0043 58.4805 11.2027C58.5819 10.0577 58.5385 9.31342 58.3864 8.95082C58.2271 8.58823 57.9085 8.41647 57.4306 8.43555H57.4233Z" fill="#F6F6F6"/>
<path d="M64.6645 2.11804C67.6262 2.06079 69.1034 2.02262 72.0651 1.94629C71.7175 4.88522 71.4496 6.35469 70.8268 9.27453C69.7334 9.27453 69.1903 9.29362 68.0968 9.3127C67.5972 12.0799 67.2931 13.473 66.6703 16.2402C67.6117 16.2402 68.0824 16.2402 69.0237 16.2402C68.3141 19.0264 67.9375 20.4196 67.2134 23.1867C66.3517 23.1867 65.9245 23.1867 65.07 23.1867C64.3386 26.3929 63.9693 27.9959 63.39 31.202C64.2879 31.202 64.7369 31.202 65.6276 31.2211C64.9976 34.1409 64.7224 35.6104 64.3676 38.5303C62.4921 38.4921 61.5507 38.473 59.668 38.4348C60.2618 23.931 64.0634 16.66 64.6572 2.13713L64.6645 2.11804Z" fill="#F6F6F6"/>
<path d="M78.6546 17.8629C77.1774 17.8629 76.446 17.8629 74.9688 17.8629C75.8377 15.3056 76.2722 14.027 77.0615 11.4507C77.6336 9.58046 77.916 8.41634 77.9522 7.95832C77.9884 7.50031 77.8508 7.2713 77.5467 7.2713C77.1991 7.2713 76.9094 7.55756 76.6705 8.13008C76.4315 8.7026 76.0622 9.90489 75.5191 11.7751C73.506 18.6263 72.1519 22.0423 70.1461 28.8553C69.6247 30.6301 69.3495 31.7942 69.2699 32.3476C69.1902 32.9011 69.2699 33.1682 69.5016 33.1682C69.7188 33.1682 69.9361 32.9011 70.1605 32.3476C70.3778 31.7942 70.7761 30.5156 71.406 28.5118C71.9853 26.6606 72.2895 25.7446 72.9122 23.8934C74.2736 23.8934 74.9543 23.8934 76.3156 23.8934C76.0984 24.466 75.9898 24.7522 75.7725 25.3247C74.3315 29.1415 73.3395 31.8515 72.6805 33.4354C72.0216 35.0194 71.2757 36.4125 70.4647 37.5957C69.6464 38.7789 68.915 39.3705 68.1619 39.3515C67.3799 39.3515 66.8151 38.8171 66.4602 37.7866C66.1054 36.7751 65.9896 35.3629 66.1778 33.5881C66.3661 31.7942 66.873 29.1224 67.8288 25.5347C68.973 21.2598 69.6247 19.1224 70.7688 14.8286C71.4712 12.195 71.9781 10.2102 72.3547 8.87435C72.7312 7.55756 73.2236 6.27893 73.8608 5.03847C74.4981 3.79802 75.2295 2.82473 76.0839 2.09954C76.9384 1.37435 77.858 1.01176 78.8284 0.973589C80.1463 0.935421 81.1384 1.46977 81.7321 2.55756C82.3259 3.64534 82.4925 5.00031 82.2463 6.64153C82.0001 8.28275 81.2759 10.84 79.9942 14.2942C79.4729 15.7064 79.1977 16.4125 78.6618 17.8056L78.6546 17.8629Z" fill="#F6F6F6"/>
<path d="M94.5422 1.4502C93.4994 4.46546 92.8767 5.9731 91.5515 8.98836C90.5812 8.98836 90.096 9.00745 89.1184 9.02653C84.1654 21.0113 80.1247 26.9655 76.2869 38.7784C75.2007 38.7594 74.6648 38.7403 73.5786 38.7212C76.8662 26.9464 80.6244 21.0113 85.0199 9.08378C84.0495 9.08378 83.5644 9.10287 82.6013 9.12195C83.6223 6.14485 84.093 4.6563 84.8316 1.6792C88.7129 1.60287 90.6536 1.54562 94.5349 1.46928L94.5422 1.4502Z" fill="#F6F6F6"/>
<path d="M99.9948 1.33594C94.0279 14.9428 87.2429 25.439 81.2253 38.8932C80.1391 38.8741 79.6033 38.855 78.5171 38.8359C83.9263 25.4008 90.1901 15.0001 95.5486 1.45044C97.3227 1.41227 98.2134 1.39319 99.9875 1.35502L99.9948 1.33594Z" fill="#F6F6F6"/>
<path d="M98.0472 23.4542C95.5272 27.2519 93.7965 29.9428 92.7683 31.5077C91.74 33.0725 90.719 34.5038 89.7197 35.8015C88.7131 37.0993 87.8369 38.0725 87.0404 38.7596C86.2439 39.4466 85.5777 39.771 84.9983 39.771C84.448 39.771 84.1004 39.4275 83.9484 38.7596C83.7963 38.0916 83.876 37.1183 84.2163 35.8015C84.5566 34.4848 85.078 33.0725 85.8094 31.5267C86.548 29.9809 87.9456 27.2901 90.1107 23.4351C91.5517 20.8588 92.2903 19.5802 93.7314 17.0038C95.8458 13.2252 97.3013 10.5153 98.1848 8.93132C99.0682 7.34735 100.01 5.89697 101.038 4.58017C102.066 3.26338 103.087 2.23285 104.123 1.50765C105.158 0.782464 106.165 0.400784 107.135 0.3817C108.055 0.362616 108.735 0.66796 109.126 1.3359C109.517 2.00384 109.59 2.9962 109.278 4.33208C108.967 5.66796 108.366 7.11834 107.49 8.70231C106.614 10.2863 104.926 13.0344 102.341 16.9657C100.625 19.5802 99.7489 20.8779 98.0327 23.4542H98.0472ZM102.247 10.9924C103.283 9.21758 103.869 8.09162 104.065 7.59544C104.253 7.09926 104.217 6.85117 103.963 6.87025C103.746 6.87025 103.471 7.08017 103.138 7.48094C102.805 7.8817 102.117 9.06491 101.002 11.0306C96.9465 18.1298 94.5424 21.6603 90.4655 28.6641C89.1983 30.8397 88.4887 32.1756 88.2642 32.6909C88.0397 33.2061 88.0252 33.4542 88.2207 33.4542C88.4235 33.4542 88.7131 33.168 89.0969 32.5764C89.4807 31.9848 90.299 30.5916 91.6241 28.3779C95.7517 21.4695 98.163 17.9962 102.254 10.9924H102.247Z" fill="#F6F6F6"/>
<path d="M123.493 0.820842C114.296 14.2178 104.81 26.0499 95.5631 39.1987C94.6145 39.1796 94.1365 39.1605 93.1879 39.1415C96.7434 32.2903 99.0462 28.8552 103.282 21.9086C98.3148 28.8361 95.7369 32.2712 91.7831 39.1033C90.878 39.0842 90.4218 39.0651 89.5166 39.046C97.3372 25.4392 105.817 14.8666 113.579 1.01168C115.064 0.973514 115.81 0.95443 117.294 0.935346C114.347 7.901 112.211 11.3743 107.938 18.2636C113.029 11.3552 115.672 7.88191 119.785 0.878094C121.27 0.839926 122.016 0.820842 123.5 0.801758L123.493 0.820842Z" fill="#F6F6F6"/>
</svg>
