<svg width="149" height="114" viewBox="0 0 149 114" fill="none" xmlns="http://www.w3.org/2000/svg">
<path d="M2.43978 110.539C-1.42353 91.6795 -0.698775 81.184 4.61405 79.0529C6.86816 79.1739 9.03014 79.1195 11.1 78.8894C7.15683 83.7875 6.45357 94.4343 8.99022 110.83C6.90194 110.915 4.71846 110.818 2.43978 110.539ZM11.3856 110.376C9.26046 94.725 9.96065 84.0206 13.4862 78.2627C15.3963 77.4635 17.242 76.5463 19.0232 75.511C18.1203 78.0296 17.6689 81.2961 17.6689 85.3102C18.5103 80.9146 19.7203 77.1003 21.2988 73.8672C22.8097 72.5776 24.2868 71.2274 25.7302 69.8167C23.7034 78.9045 23.0216 89.951 23.6849 102.956C22.217 104.252 20.7183 105.484 19.189 106.652C17.3157 99.4596 15.8048 92.842 14.6562 86.7996C14.8589 93.1387 15.5407 100.277 16.7015 108.214C14.994 109.044 13.222 109.764 11.3856 110.376ZM27.3886 99.1326C26.9156 88.7976 27.1459 79.3798 28.0795 70.8793C27.2012 71.7329 26.3137 72.5654 25.417 73.3767C25.8838 71.7239 26.3874 70.1103 26.9279 68.5362C29.9559 64.9095 32.8948 61.1376 35.7447 57.2203C35.3701 59.2243 35.0169 61.2405 34.6852 63.2687C33.8991 64.2677 33.1037 65.2546 32.2991 66.2294C31.4515 75.0266 31.1536 84.3869 31.4054 94.3102C30.0849 95.951 28.7459 97.5585 27.3886 99.1326ZM34.7497 89.8511C34.7497 78.0024 35.4315 66.6078 36.795 55.6673C39.2702 51.8832 41.7055 48.0689 44.1009 44.2243C43.8184 46.5674 43.5481 48.8984 43.2902 51.2172C42.0925 52.9973 40.8856 54.7652 39.6695 56.521C39.4238 58.743 39.1996 60.9741 38.9969 63.2142C40.1823 61.5977 41.3585 59.9751 42.5255 58.3464C42.3719 60.5382 42.2337 62.7269 42.1109 64.9125C40.9439 66.517 39.7677 68.1124 38.5823 69.6986C38.4963 72.3445 38.438 74.9963 38.4073 77.6543C39.7032 75.8561 40.99 74.0488 42.2675 72.2324C42.2552 74.4181 42.2583 76.6008 42.2767 78.7804C39.8077 82.51 37.2987 86.2002 34.7497 89.8511ZM43.4468 76.9731C43.717 65.6694 44.4049 53.9781 45.5105 41.8993C47.304 38.9205 49.0821 35.9508 50.8448 32.9901C51.7201 31.5189 52.3465 30.8832 52.7058 31.1193C53.0744 31.3554 53.2586 32.2363 53.2678 33.7348C53.2863 35.2152 53.2126 37.0678 53.0559 39.311C52.8993 41.4362 52.669 43.2707 52.3465 44.8418C52.0333 46.3948 51.5358 47.8661 50.8356 49.2647C51.37 48.7107 51.7201 48.7288 51.8859 49.3101C52.0609 49.8641 52.1162 50.8086 52.0425 52.1708C51.8705 56.3 51.7323 60.2748 51.6279 64.0952C50.5101 65.857 49.3892 67.6219 48.2652 69.3899C48.3389 65.2667 48.4587 61.0286 48.6245 56.6754C48.6798 55.6673 48.5968 55.2041 48.3942 55.2677C48.2007 55.3222 47.869 55.6673 47.4084 56.3394C47.1934 61.5099 47.046 66.5473 46.9662 71.4514C45.7992 73.2859 44.6261 75.1265 43.4468 76.9731ZM47.823 50.1002C48.1055 49.6824 48.3911 49.2647 48.6798 48.8469C49.1588 48.1294 49.4813 46.6673 49.6563 44.3968C49.7761 42.9074 49.8037 41.9992 49.73 41.6995C49.6656 41.4089 49.4813 41.4725 49.1957 41.9175C48.9254 42.3353 48.6552 42.7561 48.385 43.1799C48.1823 45.5109 47.9949 47.8176 47.823 50.1002ZM56.9346 56.1577C55.4237 58.4554 54.3273 59.5271 53.6916 59.2728C53.0467 58.964 52.7795 57.2657 52.8993 54.1325C52.9484 53.0669 53.0007 51.9862 53.0559 50.8903C54.1861 49.304 55.3131 47.745 56.4371 46.2132C56.3634 47.5876 56.2958 48.9377 56.2344 50.2637C56.1976 50.972 56.2344 51.4534 56.3358 51.6895C56.4371 51.9075 56.6306 51.8166 56.9254 51.408C57.2294 50.9811 57.4505 50.5361 57.5703 50.0639C57.7177 49.5825 57.8006 48.9831 57.8375 48.2657C57.8835 47.3121 57.8743 46.5674 57.8006 46.0588C57.7361 45.5048 57.5979 45.087 57.3768 44.7964C57.1465 44.5058 56.8425 44.2061 56.4371 43.9427C55.9887 43.6218 55.5404 43.2888 55.092 42.9437C54.0878 42.2172 53.6916 40.2737 53.9127 37.0588C54.1615 33.6077 54.7143 30.3564 55.5342 27.3685C56.345 24.3352 57.3953 21.7287 58.6574 19.6853C60.1776 17.2514 61.1818 16.761 61.6793 18.1868C62.1676 19.6308 62.2781 22.6914 62.011 27.1324C60.8747 28.5855 59.7384 30.0718 58.6022 31.5915C58.6636 30.6349 58.725 29.6662 58.7864 28.6854C58.8325 28.086 58.7864 27.7227 58.6759 27.5956C58.5653 27.4502 58.3995 27.5501 58.1784 27.8771C57.9112 28.2676 57.6993 28.7308 57.5427 29.312C57.3953 29.8751 57.3031 30.4291 57.2571 31.0466C57.2202 31.6369 57.2478 32.1637 57.3308 32.6632C57.4137 33.1536 57.6164 33.5714 57.948 33.8892C58.5008 34.5068 59.0597 35.1153 59.6248 35.7147C59.9657 36.0688 60.2697 36.5048 60.5369 37.0224C60.8133 37.5038 61.016 38.2031 61.1542 39.0931C61.2831 39.9649 61.3108 41.1183 61.2279 42.5986C61.0804 45.3504 60.6843 47.7208 60.0302 49.8368C59.4037 51.9619 58.3718 54.0417 56.9346 56.1577ZM61.9188 48.9014C62.4716 39.1476 63.181 26.7964 64.047 11.8478C66.2397 8.92343 68.4201 6.2867 70.5883 3.93755C70.4101 7.66713 70.2382 11.2635 70.0723 14.7267C69.0036 15.5985 67.9318 16.5491 66.857 17.5784C66.6912 20.648 66.5315 23.6087 66.3779 26.4603C67.4159 25.5764 68.4508 24.762 69.4827 24.0173C69.3476 26.5542 69.2155 28.9669 69.0865 31.2555C68.0485 31.976 67.0105 32.7661 65.9725 33.6259C65.8313 36.084 65.6931 38.3726 65.558 40.4917C66.7127 39.4685 67.8643 38.5361 69.0128 37.6945C68.9023 39.0991 68.7979 40.3706 68.6996 41.5088C66.4455 43.6703 64.1852 46.1345 61.9188 48.9014ZM73.5733 39.3292C72.394 39.5744 71.4727 39.6107 70.8278 39.2656C70.1737 38.8479 69.9249 37.749 70.0631 35.8055C70.3579 30.98 70.6712 25.3221 71.0028 18.8316C71.2332 13.9729 71.7307 9.74988 72.4769 6.43503C73.2324 2.95672 74.2919 0.886075 75.6646 0.504641C76.4016 0.441068 77.0373 1.03138 77.5717 2.23017C78.1153 3.45621 78.5114 5.19991 78.7694 7.3977C79.0273 9.49559 79.1103 11.9749 79.0089 14.7448C78.8984 17.6026 78.7909 20.3301 78.6865 22.9275C77.6239 22.6551 76.5613 22.4765 75.4988 22.3917C75.597 20.1697 75.6984 17.8538 75.8028 15.4441C75.8673 13.9093 75.8489 12.8377 75.7475 12.3018C75.6462 11.7479 75.4803 11.4754 75.2224 11.4936C74.9276 11.539 74.7065 11.9204 74.5775 12.6924C74.4485 13.4008 74.3472 14.3543 74.3011 15.4896C73.9448 22.9184 73.6132 29.2787 73.3061 34.5704C73.26 35.2515 73.2877 35.7056 73.4074 35.9326C73.518 36.1687 73.693 36.2686 73.951 36.2505C74.2274 36.2323 74.4301 36.0688 74.5683 35.7601C74.7065 35.4331 74.8078 34.9972 74.8447 34.4432C74.9491 32.7782 75.0566 30.974 75.1671 29.0305C76.2481 29.1213 77.3322 29.309 78.4193 29.5935C78.3087 31.6521 78.2013 33.5592 78.0968 35.3151C77.9494 37.3948 77.4796 38.4937 76.6965 38.9024C75.9134 39.2565 74.8631 39.3292 73.5733 39.3292ZM80.179 41.8085C80.6273 35.0638 81.0726 25.9003 81.5149 14.318C80.8945 13.9245 80.2711 13.5612 79.6446 13.2282C79.7675 9.6863 79.8934 5.99911 80.0224 2.16661C82.2458 4.07983 84.463 6.38962 86.6741 9.09599C86.6127 12.4865 86.5513 15.7893 86.4899 19.0042C85.8695 18.314 85.2523 17.648 84.6381 17.0062C84.2695 28.4008 83.8703 37.7369 83.4404 45.0144C82.3532 43.864 81.2661 42.7954 80.179 41.8085ZM86.1398 48.2747C86.6311 38.2121 87.0457 25.4795 87.3835 10.0768C88.3601 11.4875 89.3367 12.9376 90.3133 14.427C90.0983 29.3211 89.7635 42.0386 89.309 52.5795C88.2526 51.1083 87.1962 49.6733 86.1398 48.2747ZM94.542 60.6714C93.2153 58.6189 92.248 56.4211 91.6215 54.0235C91.0135 51.6622 90.7739 49.1193 90.8937 46.2495C91.0718 40.643 91.2131 34.5582 91.3175 27.9952C91.3543 24.1172 91.7044 21.5743 92.3401 20.421C92.9942 19.3402 93.9155 19.8306 95.1501 21.9195C96.3846 24.0264 97.352 26.6601 98.043 29.7116C98.7524 32.7812 99.1485 36.0779 99.2038 39.6561C99.2345 45.9528 99.1977 51.9952 99.0932 57.7834C98.9827 60.9256 98.5128 62.7057 97.7205 63.1779C96.9374 63.6048 95.8687 62.7329 94.542 60.6714ZM94.8737 55.077C95.3712 55.8035 95.666 55.2041 95.7397 53.2425C95.8748 47.3817 95.9577 41.1667 95.9885 34.5976C95.9792 32.4997 95.7305 31.0739 95.2698 30.3564C94.7355 29.5391 94.4867 30.2565 94.4867 32.4271C94.4253 39.0265 94.3209 45.2354 94.1735 51.0538C94.1367 52.0982 94.1643 52.8974 94.2656 53.5331C94.3762 54.1234 94.5789 54.6501 94.8737 55.077ZM100.042 69.0266C100.411 57.3111 100.469 44.6541 100.217 31.0557C101.292 32.9205 102.376 34.7944 103.469 36.6773C104.274 43.973 105.014 51.1143 105.69 58.1012C105.53 51.9074 105.281 45.6077 104.943 39.2021C105.981 40.97 107.029 42.7349 108.085 44.4967C108.785 57.3323 108.942 69.9499 108.555 82.3495C107.4 80.5756 106.252 78.8046 105.109 77.0367C104.815 70.2435 104.418 63.3384 103.921 56.3212C103.835 62.4786 103.654 68.4756 103.377 74.3122C102.259 72.5443 101.148 70.7824 100.042 69.0266ZM110.149 84.738C110.548 72.2113 110.352 59.6027 109.559 46.9125C110.726 48.7712 111.902 50.6209 113.088 52.4614C114.341 59.0669 115.465 65.6966 116.46 72.3505C116.054 66.4413 115.474 60.6199 114.718 54.8863C115.885 56.5573 117.071 58.2072 118.275 59.8358C119.767 71.5816 120.182 84.1447 119.518 97.5252C118.216 95.8904 116.93 94.2376 115.658 92.5665C115.462 85.18 115.059 77.8964 114.451 70.7158C114.402 77.0851 114.169 83.4969 113.751 89.951C112.541 88.2194 111.34 86.4817 110.149 84.738ZM121.361 99.6866C122.116 86.1003 121.659 73.5463 119.988 62.0245C122.709 65.1063 125.581 68.0034 128.602 70.7158C129.425 72.3505 130.193 74.0458 130.906 75.8016C129.18 74.7844 127.512 73.6946 125.903 72.5321C126.345 74.6209 126.732 76.7794 127.064 79.0074C128.704 79.9943 130.402 80.9055 132.159 81.7411C132.398 83.951 132.558 86.2607 132.638 88.6704C130.85 87.8591 129.121 86.9661 127.451 85.9913C127.377 89.0791 127.214 92.2547 126.963 95.5181C128.744 96.7351 130.596 97.8672 132.518 98.9147C132.039 102.027 131.498 105.211 130.896 108.469C127.555 105.75 124.377 102.823 121.361 99.6866ZM132.647 109.604C134.391 94.2618 133.7 81.7683 130.574 72.1235C132.337 73.1527 134.17 74.0851 136.074 74.9206C140.011 81.1992 141.584 90.4111 140.791 102.556C143.365 102.635 146.101 102.505 149 102.166C147.937 105.829 146.786 109.607 145.545 113.5C140.865 112.707 136.566 111.408 132.647 109.604Z" fill="#C8C8C8"/>
</svg>
