<?xml version="1.0" encoding="UTF-8"?>
<svg id="a" data-name="Calque 1" xmlns="http://www.w3.org/2000/svg" width="800" height="800" viewBox="0 0 800 800">
  <path d="M455.958,597.956c6.257.784,15.692,1.692,27.244,1.699,11.044.007,13.274-.816,25.312-.898,12.282-.083,20.662.701,31.969,1.76,18.352,1.718,24.552,3.705,27.893,5.475.631.334,1.109.702,2.347,1.43,8.605,5.066,13.087,5.778,17.178,8.014,7.68,4.198,11.009,12.146,12.13,14.822,1.177,2.81,5.772,13.778.693,22.734-2.554,4.503-7.442,6.926-17.115,11.586-7.151,3.446-13.355,5.664-17.705,7.048l-46.709,9.779c-29.2,1.306-97.641,3.872-139.918,0-.607-.056-7.901-.747-17.627-2.765-15.609-3.239-57.206-11.872-60.855-32.603-1.332-7.567,2.861-14.078,4.064-15.945,5.239-8.135,13.922-11.158,42.73-17.028,10.204-2.079,22.702-4.468,37.07-6.866,4.631-1.51,9.545-2.905,14.738-4.12,21.33-4.99,40.732-5.392,56.563-4.122Z" fill="#d9cdca"/>
  <g>
    <path d="M196.306,117.097c8.351,1.914,48.514,64.444,56.554,75.069,1.749,9.519-20.639,15.684-28.85,10.978-7.901-4.528-19.426-26.314-25.177-33.955-5.434-7.22-28.123-32.496-30.26-37.831-1.868-4.665-.787-9.472-.968-14.261,8.275,1.235,21.207-1.718,28.701,0Z" fill="#fad605"/>
    <path d="M181.059,226.327c-2.811-.571-43.452-26.237-48.85-30.026-4.799-3.368-22.874-17.033-23.756-21.051-1.934-8.808-.222-10.81,8.011-11.597,25.174-2.406,25.624,5.578,43.372,17.604,11.371,7.704,37.886,21.377,45.813,28.952,4.997,4.775,4.463,16.118,3.214,16.118-7.499,0-21.432,1.294-27.804,0Z" fill="#fad605"/>
    <path d="M178.368,246.025l-.015,11.125-10.748,1.409c-26.769,1.935-43.604-10.031-68.234-18.734-12.89-4.554-29.059-2.175-25.045-20.661h34.98c2.455,0,40.431,14.263,46.225,16.53,4.178,1.635,20.778,8.276,22.837,10.33Z" fill="#fad605"/>
    <path d="M178.368,246.025c3.349,3.34,1.452,8.09,1.802,12.542-4.151.22-8.424-.307-12.565-.007l8.968-1.807-1.781-5.365,3.575-5.363Z" fill="#fade3b"/>
  </g>
  <g>
    <path d="M384.658,614.9c5.635-4.47,13.002-9.904,19.732-12.535-.1-19.802-.2-39.604-.3-59.407-3.362.61-6.748,1.24-10.157,1.891-3.05.582-6.076,1.174-9.079,1.773-.76,9.581-1.247,17.631-1.565,23.625-.923,17.398-.767,24.052-5.496,27.022-3.028,1.901-7.558,1.977-10.534,0-4.643-3.085-3.862-10.073-4.236-25.801-.135-5.68-.463-14.241-1.374-24.846-15.651-2.213-46.638-8.987-72.707-33.625-35.948-33.974-38.768-79.454-40.69-110.216-5.695-91.165,41.866-161.731,75.18-184.748,9.867-6.817,28.315-19.553,40.103-18.138,8.897,1.068,39.003,9.873,47.458,13.573,30.722,13.443,45.417,43.5,71.76,62.666,35.168,25.587,80.355,37.205,121.229,50.888,20.064,6.717,43.14,18.81,65.181,19.365,9.179.231,12.096-16.164,24.486-17.681,2.229-.273,9.135-.775,14.895,3.381,2.599,1.875,4.414,4.317,7.721,11.776,2.313,5.216,5.151,12.429,7.622,21.429,1.577,5.802,2.812,13.221,2.29,21.755-.405,6.632-1.725,11.551-3.664,18.778-2.182,8.133-3.863,14.466-7.099,21.068-2.986,6.093-8.921,15.832-20.839,25.19-10.709,2.933-16.192,1.13-19.236-1.298-3.07-2.449-3.215-5.47-9.389-13.969-2.772-3.816-4.152-5.729-5.267-6.641-7.614-6.225-25.007,2.321-44.273,12.748-12.279,6.645-28.245,15.638-46.716,27.022-.174,4.081-.419,10.385-.611,18.091-.425,17.067-.395,29.694-.284,33.464.433,14.807.415,36.943-1.683,68.423-3.871,7.499-23.03,8.019-26.551.434l-9.988-99.63c-2.557,2.489-5.818,5.275-9.851,7.957-3.263,2.17-6.374,3.836-9.138,5.117-1.089,38.102-2.178,76.204-3.267,114.306-10.696,16.156-38.252,56.273-48.548,51.601-8.346-3.787-2.067-35.519,2.992-56.381.529-.849,1.615-7.241,1.628-9.587.053-9.352.668-16.355.508-19.161-.589-10.304-1.079-30.888-1.654-59.331-1.967,1.144-4.105,2.301-6.412,3.435-2.309,1.134-4.532,2.119-6.641,2.977-.377,8.557-.698,17.203-.96,25.938-.526,17.565-.789,34.8-.819,51.691-1.336,1.115-3.398,2.757-6.045,4.544-11.427,7.714-22.037,10.224-40.838,13.893-32.349,6.311-34.124,5.354-34.579,4.351-.868-1.914,2.005-6.337,17.704-17.177Z" fill="#f86618"/>
    <g>
      <path d="M438.472,281.838c-23.054-4.158-40.884-2.167-60.843,9.995-49.125,29.935-84.505,94.701-44.996,146.691,10.563,13.9,34.363,40.578,50.258,46.526,18.916,7.078,34.447,3.494,53.787,2.714-2.916,4.401-5.829,13.557-8.472,16.213-6.234,6.265-16.709,10.489-32.786,14.228-10.393,2.417-15.746,3.621-23.429,3.419,0,0-9.493-.25-19.623-3.419-10.978-3.434-39.206-18.773-61.732-50.293-17.32-24.236-16.93-67.983-17.271-97.362-.587-50.676,15.735-84.271,51.178-119.225,3.52-3.471,2.945-2.567,6.161-6.19,4.118-4.638,21.228-19.368,26.569-20.319,8.786-1.565,42.195,9.891,50.544,15.101,18.515,11.552,21.955,23.738,30.653,41.922Z" fill="#fbf1ee"/>
      <g>
        <path d="M438.472,281.838c20.559,42.98,25.018,85.812,24.108,133.405-.687,35.894-7.482,44.717-25.902,72.521-9.029,6.498-28.677,6.124-40.195,4.413-32.862-4.881-73.176-50.641-81.665-81.532-14.045-51.109,28.211-110.166,74.753-128.863,13.623-5.473,37.524-9.75,48.901.057Z" fill="#fad605"/>
        <path d="M440.246,394.647c-7.097-1.385-14.555-11.543-20.749-12.513-5.901-.924-13.057,2.915-19.412,3.777-1.231.167-6.729,2.476-6.424-1.11.323-3.797,22.581-10.048,27.292-9.514,7.468.847,23.489,10.511,19.293,19.36Z" fill="#090800"/>
        <path d="M358.423,374.263c-5.197-3.455-6.389-9.942-15.829-8.274-2.831.5-11.071,8.04-7.959-.679,3.927-11,22.639-4.586,29.384.699,12.153,9.523,8.353,17.529-5.596,8.254Z" fill="#0a0800"/>
        <g>
          <path d="M409.782,410.796c-3.384,11.674-10.908,26.419-24.344,28.505-19.575,3.039-34.273-2.608-34.979-24.05-.222-6.727,4.359-13.161-1.672-14.325,1.259-.962,2.357-3.1,3.656-3.65,7.243-3.066,47.052,11.664,57.339,13.52Z" fill="#020200"/>
          <path d="M395.423,412.564c.144,14.712-19.854,30.672-30.262,14.978-1.553-2.342-7.511-19.416-7.352-21.283.099-1.166,1.901-2.116,3.649-1.94,10.029,1.007,22.471,10.564,33.965,8.245Z" fill="#f9d505"/>
        </g>
      </g>
    </g>
  </g>
</svg>