<svg width="232" height="202" viewBox="0 0 232 202" fill="none" xmlns="http://www.w3.org/2000/svg">
<g clip-path="url(#clip0_204_20018)">
<path d="M135.865 171.274C138.086 171.553 141.436 171.875 145.537 171.877C149.457 171.88 150.249 171.588 154.522 171.559C158.882 171.529 161.857 171.807 165.871 172.183C172.386 172.793 174.587 173.499 175.773 174.127C175.997 174.246 176.167 174.376 176.607 174.635C179.661 176.433 181.252 176.686 182.705 177.48C185.431 178.97 186.613 181.791 187.011 182.741C187.429 183.739 189.06 187.633 187.257 190.812C186.35 192.411 184.615 193.271 181.181 194.925C178.642 196.148 176.44 196.936 174.896 197.427L158.314 200.899C147.948 201.362 123.652 202.273 108.643 200.899C108.428 200.879 105.838 200.633 102.386 199.917C96.8445 198.767 82.0775 195.702 80.7821 188.343C80.3093 185.657 81.7978 183.345 82.2249 182.682C84.0847 179.795 87.1672 178.721 97.394 176.638C101.016 175.9 105.453 175.051 110.554 174.2C112.198 173.664 113.942 173.169 115.786 172.738C123.358 170.966 130.246 170.823 135.866 171.274H135.865Z" fill="#1F1E1E" fill-opacity="0.1"/>
<path d="M43.6882 0.569125C46.6528 1.2486 60.9106 23.4467 63.7648 27.2186C64.3857 30.5979 56.438 32.7864 53.5231 31.1158C50.7182 29.5084 46.6268 21.7743 44.5852 19.0618C42.6562 16.4987 34.6016 7.52571 33.8429 5.63178C33.1798 3.97571 33.5636 2.26922 33.4993 0.569125C36.4369 1.00755 41.0278 -0.0407646 43.6882 0.569125Z" fill="#FAD605"/>
<path d="M38.2759 39.3466C37.2779 39.1439 22.8504 30.0325 20.9341 28.6874C19.2305 27.4918 12.8138 22.6407 12.5007 21.2143C11.8142 18.0874 12.4219 17.3767 15.3446 17.0974C24.2814 16.2432 24.4411 19.0775 30.7417 23.3468C34.7784 26.0817 44.1912 30.9356 47.0053 33.6247C48.7792 35.3199 48.5897 39.3466 48.1463 39.3466C45.4841 39.3466 40.5379 39.806 38.2759 39.3466Z" fill="#FAD605"/>
<path d="M37.3205 46.3384L37.3152 50.2878L33.4997 50.788C23.9967 51.4749 18.0202 47.227 9.27658 44.1374C4.70063 42.5207 -1.03936 43.3653 0.385606 36.8027H12.8035C13.675 36.8027 27.1565 41.8661 29.2134 42.6709C30.6966 43.2513 36.5896 45.6092 37.3205 46.3384Z" fill="#FAD605"/>
<path d="M37.3209 46.3389C38.5098 47.5246 37.8363 49.2108 37.9606 50.7913C36.487 50.8694 34.9701 50.6823 33.5 50.7888L36.6836 50.1473L36.0514 48.2427L37.3209 46.3389Z" fill="#FADE3B"/>
<path d="M110.554 177.289C112.554 175.702 115.17 173.773 117.559 172.839C117.523 165.81 117.488 158.78 117.452 151.75C116.259 151.966 115.057 152.19 113.847 152.421C112.764 152.628 111.69 152.838 110.624 153.051C110.354 156.452 110.181 159.31 110.068 161.437C109.74 167.614 109.796 169.976 108.117 171.03C107.042 171.705 105.434 171.732 104.377 171.03C102.729 169.935 103.006 167.454 102.874 161.871C102.826 159.854 102.709 156.815 102.386 153.051C96.8297 152.265 85.8293 149.86 76.5748 141.114C63.8133 129.053 62.8122 112.907 62.1299 101.987C60.1082 69.6234 76.9923 44.5725 88.8188 36.4014C92.3216 33.9814 98.8706 29.4601 103.055 29.9624C106.214 30.3416 116.901 33.4674 119.903 34.7809C130.809 39.5531 136.026 50.2234 145.378 57.0273C157.862 66.1107 173.904 70.2351 188.414 75.0925C195.537 77.4771 203.729 81.7701 211.553 81.9671C214.812 82.0491 215.847 76.2289 220.246 75.6903C221.037 75.5934 223.489 75.4152 225.534 76.8906C226.456 77.5562 227.101 78.4231 228.275 81.0711C229.096 82.9228 230.103 85.4834 230.98 88.6784C231.54 90.7381 231.979 93.3718 231.793 96.4014C231.649 98.7558 231.181 100.502 230.493 103.068C229.718 105.955 229.121 108.203 227.972 110.547C226.912 112.71 224.805 116.167 220.575 119.489C216.773 120.53 214.826 119.89 213.746 119.028C212.656 118.159 212.604 117.087 210.413 114.069C209.429 112.715 208.939 112.036 208.543 111.712C205.84 109.502 199.665 112.536 192.826 116.237C188.467 118.596 182.799 121.789 176.242 125.83C176.18 127.279 176.093 129.517 176.025 132.253C175.874 138.311 175.885 142.794 175.924 144.132C176.078 149.389 176.071 157.247 175.327 168.422C173.952 171.085 167.151 171.269 165.901 168.576L162.355 133.208C161.448 134.091 160.29 135.08 158.858 136.033C157.7 136.803 156.595 137.394 155.614 137.849C155.228 151.375 154.841 164.901 154.454 178.428C150.657 184.163 140.875 198.405 137.22 196.746C134.257 195.402 136.486 184.137 138.282 176.731C138.47 176.429 138.855 174.16 138.86 173.327C138.879 170.007 139.097 167.521 139.04 166.525C138.831 162.867 138.657 155.56 138.453 145.463C137.755 145.869 136.996 146.28 136.177 146.682C135.357 147.085 134.568 147.434 133.819 147.739C133.685 150.777 133.572 153.846 133.478 156.947C133.292 163.183 133.198 169.301 133.188 175.297C132.713 175.693 131.981 176.276 131.042 176.91C126.985 179.649 123.219 180.54 116.544 181.842C105.06 184.083 104.43 183.743 104.269 183.387C103.961 182.708 104.981 181.137 110.554 177.289Z" fill="#F96618"/>
<path d="M129.658 59.0513C121.474 57.5752 115.145 58.282 108.059 62.5995C90.6198 73.2265 78.0599 96.2184 92.0856 114.675C95.8355 119.609 104.284 129.08 109.927 131.192C116.642 133.704 122.156 132.432 129.022 132.155C127.986 133.717 126.952 136.968 126.014 137.911C123.801 140.135 120.082 141.634 114.375 142.962C110.685 143.82 108.785 144.247 106.058 144.175C106.058 144.175 102.688 144.087 99.0915 142.962C95.1943 141.743 85.1734 136.297 77.1767 125.108C71.0281 116.504 71.1665 100.974 71.0455 90.5441C70.8371 72.5541 76.6314 60.6279 89.2137 48.2192C90.4633 46.987 90.2591 47.3079 91.4008 46.0218C92.8627 44.3753 98.9368 39.1461 100.833 38.8085C103.952 38.2529 115.812 42.3198 118.776 44.1694C125.349 48.2703 126.57 52.5964 129.658 59.0517L129.658 59.0513Z" fill="#FBF1EE"/>
<path d="M129.658 59.052C136.957 74.3099 138.54 89.5153 138.217 106.411C137.973 119.153 135.561 122.285 129.022 132.156C125.816 134.463 118.841 134.33 114.752 133.722C103.086 131.99 88.7749 115.745 85.7613 104.778C80.7753 86.6348 95.7762 65.6696 112.299 59.0321C117.135 57.0892 125.62 55.5705 129.658 59.052Z" fill="#FAD605"/>
<path d="M130.288 99.099C127.769 98.6074 125.121 95.0013 122.922 94.6569C120.827 94.3289 118.287 95.6918 116.031 95.9978C115.594 96.0571 113.642 96.8767 113.75 95.6037C113.865 94.2558 121.767 92.0367 123.439 92.2262C126.09 92.5269 131.778 95.9577 130.288 99.099Z" fill="#1F1E1E"/>
<path d="M101.241 91.8632C99.396 90.6367 98.9728 88.3338 95.6216 88.926C94.6166 89.1035 91.6914 91.7802 92.7962 88.6849C94.1903 84.7799 100.833 87.0569 103.228 88.9331C107.542 92.3137 106.193 95.1558 101.241 91.8632Z" fill="#1F1E1E"/>
<path d="M119.474 104.833C118.272 108.977 115.601 114.212 110.831 114.952C103.882 116.031 98.6645 114.026 98.4139 106.414C98.3351 104.026 99.9613 101.742 97.8203 101.329C98.2673 100.988 98.657 100.229 99.1182 100.033C101.689 98.9449 115.822 104.174 119.474 104.833Z" fill="#1F1E1E"/>
<path d="M114.377 105.46C114.428 110.683 107.328 116.348 103.634 110.777C103.082 109.946 100.967 103.884 101.024 103.222C101.059 102.808 101.698 102.47 102.319 102.533C105.879 102.89 110.296 106.283 114.377 105.46Z" fill="#F9D505"/>
</g>
<defs>
<clipPath id="clip0_204_20018">
<rect width="232" height="202" fill="white"/>
</clipPath>
</defs>
</svg>
