<svg width="118" height="52" viewBox="0 0 118 52" fill="none" xmlns="http://www.w3.org/2000/svg">
<path d="M0 52C0.0240718 42.0091 0.0481437 31.7283 0.0722155 21.1576C3.23766 19.6474 6.40912 18.1373 9.5866 16.6272C10.4291 22.9093 11.2776 28.992 12.1322 34.8754C13.0228 28.2188 13.9255 21.3206 14.8403 14.1809C18.0418 12.707 21.2494 11.2573 24.463 9.83174C24.3787 20.8857 24.3065 30.9914 24.2463 40.1487C22.3447 41.0306 20.443 41.9246 18.5413 42.8306C18.5774 36.2103 18.6195 29.2034 18.6677 21.8099C17.428 29.7229 16.2003 37.3036 14.9847 44.5521C13.1312 45.4703 11.2656 46.3884 9.388 47.3066C8.16034 40.9883 6.92666 34.4103 5.68696 27.5725C5.66289 34.9901 5.63882 42.1964 5.61475 49.1912C3.74918 50.1335 1.8776 51.0698 0 52ZM26.7017 39.0252C26.7739 29.9766 26.8521 19.8891 26.9364 8.76258C28.9464 7.91692 30.9563 7.08938 32.9663 6.27997C32.8701 17.5997 32.7858 27.645 32.7136 36.4157C30.7036 37.2734 28.6996 38.1432 26.7017 39.0252ZM41.578 33.2263C37.1548 34.8391 34.9523 33.3894 34.9884 28.2792C35.0245 24.1717 35.0666 19.8105 35.1147 15.1956C35.1689 8.58137 37.7687 4.12353 42.8599 2.40201C44.9722 1.76776 46.5789 1.91273 47.6983 2.72819C48.7996 3.57989 49.5398 4.99335 49.955 6.96858C50.3522 8.85319 50.5508 11.1184 50.5147 13.7278C48.4927 14.0661 46.4646 14.4466 44.4305 14.8695C44.4426 13.8667 44.4546 12.8459 44.4666 11.807C44.4847 11.0277 44.3944 10.4116 44.1958 9.94047C44.0334 9.43307 43.6723 9.26998 43.0765 9.41495C42.3543 9.61428 41.8849 10.0311 41.6502 10.6653C41.3975 11.2633 41.2892 11.9157 41.2892 12.5499C41.229 17.8293 41.1808 22.7099 41.1447 27.1919C41.1267 27.8806 41.235 28.3698 41.4517 28.7141C41.6683 29.0403 42.0835 29.1128 42.7335 28.9316C43.3834 28.7685 43.8348 28.4604 44.0334 28.0255C44.2681 27.5544 44.3944 26.9926 44.3944 26.3221C44.4065 25.102 44.4185 23.8395 44.4305 22.5348C43.8769 22.6677 43.3232 22.8005 42.7696 22.9334C42.7816 21.2663 42.7997 19.5508 42.8237 17.787C45.3513 17.2192 47.8848 16.7239 50.4244 16.301C50.3642 21.7978 50.3101 26.5879 50.2619 30.6712C49.4315 30.8524 48.595 31.0397 47.7524 31.233C47.4154 30.786 47.0784 30.333 46.7414 29.8739C45.6401 31.378 43.907 32.4652 41.578 33.2263ZM52.7353 30.2363C52.8196 22.4321 52.9339 12.4835 53.0783 0.390545C56.2438 0.0885237 59.4152 -0.0383255 62.5927 0.00999795C64.1815 0.154968 65.355 0.789214 66.1674 1.89461C66.9618 2.98189 67.4853 4.37723 67.7381 6.08063C68.0089 7.74779 68.1353 9.59616 68.0991 11.6257C68.0811 13.5285 67.8283 14.9601 67.3951 15.9567C66.9618 16.9353 66.1493 17.5514 64.9758 17.8051C65.9507 18.0951 66.6007 18.6387 66.9979 19.436C67.377 20.1971 67.5756 21.1213 67.5575 22.2086C67.5214 25.2892 67.4913 28.0678 67.4673 30.5444C65.4332 30.2182 63.3931 29.9645 61.347 29.7833C61.3711 27.3309 61.4072 24.516 61.4553 21.3388C61.4553 20.5414 61.2748 20.0159 60.8957 19.8166C60.5526 19.6172 59.9569 19.4904 59.1264 19.4723C59.0782 23.3744 59.0361 26.7933 59 29.7289C56.9178 29.8135 54.8296 29.9826 52.7353 30.2363ZM59.2167 14.0902C59.7222 14.1023 60.2216 14.1084 60.7151 14.1084C61.5817 14.1446 62.0331 13.1479 62.0511 11.0459C62.0692 9.63241 61.9608 8.67198 61.7983 8.21894C61.6178 7.76591 61.2567 7.51221 60.7332 7.49409C60.2517 7.48201 59.7703 7.47597 59.2889 7.47597C59.2648 9.75926 59.2407 11.964 59.2167 14.0902ZM69.0921 30.8706C70.1753 23.1147 71.2766 13.3956 72.396 1.7134C75.8864 2.74027 79.3768 3.86983 82.8672 5.10208C83.7458 16.8568 84.6365 27.2826 85.5392 36.3794C83.5773 35.5821 81.6215 34.815 79.6717 34.078C79.5393 32.8579 79.4009 31.6015 79.2564 30.3088C78.0167 29.9222 76.771 29.5477 75.5193 29.1853C75.3869 30.345 75.2485 31.4504 75.104 32.5015C73.094 31.9095 71.0901 31.3659 69.0921 30.8706ZM76.0248 25.4161C76.9516 25.6698 77.8843 25.9235 78.8231 26.1772C78.4139 21.1273 78.0167 15.6608 77.6316 9.77738C77.5353 9.74113 77.439 9.71093 77.3427 9.68677C76.8974 15.3648 76.4581 20.6079 76.0248 25.4161ZM87.4529 37.1768C87.5131 28.3215 87.5913 18.2642 87.6876 7.00482C89.7939 7.88672 91.9062 8.78674 94.0245 9.70489C94.9272 15.6245 95.8359 21.3327 96.7506 26.8295C96.7747 21.7314 96.8048 16.446 96.8409 10.9734C98.8268 11.8794 100.813 12.7976 102.799 13.7278C102.738 24.5644 102.684 34.7304 102.636 44.226C100.614 43.2474 98.5981 42.2749 96.5881 41.3084C95.5771 36.4519 94.5721 31.4082 93.5731 26.1772C93.537 30.9733 93.5069 35.5398 93.4829 39.8769C91.4608 38.9587 89.4508 38.0587 87.4529 37.1768ZM108.052 46.9079C108.076 39.1641 108.106 31.082 108.143 22.6616C106.927 22.1059 105.705 21.5502 104.478 20.9945C104.49 18.8561 104.502 16.6997 104.514 14.5252C109.003 16.6756 113.499 18.838 118 21.0126C117.988 23.0905 117.982 25.1563 117.982 27.2101C116.754 26.6423 115.533 26.0745 114.317 25.5067C114.293 33.9149 114.269 42.0816 114.245 50.0067C112.175 48.9677 110.11 47.9348 108.052 46.9079Z" fill="#C8C8C8"/>
</svg>
