<svg width="125" height="36" viewBox="0 0 125 36" fill="none" xmlns="http://www.w3.org/2000/svg">
<path d="M33.4741 22.1739C36.3749 24.2379 36.8321 25.7253 36.8951 26.6511C36.9739 27.5769 36.4695 28.4875 35.6024 29.3374C34.7353 30.1873 33.5687 30.8703 32.3705 31.3256C31.1723 31.7809 30.0215 31.9631 28.7445 31.8872C27.5463 31.8113 26.4743 31.5229 25.2131 31.0373C23.9676 30.5516 22.5961 29.8535 21.0511 28.9732C19.5061 28.0929 18.0084 27.1368 16.8102 26.1351C15.6121 25.1334 13.7045 23.388 11.1347 20.99C9.4321 19.3965 8.58078 18.6072 6.86237 17.044C4.3557 14.7674 2.66882 13.2042 1.80174 12.3088C0.934651 11.4133 0.50899 10.6089 0.556286 9.8349C0.587816 9.06087 1.17113 8.42343 2.30622 7.89223C3.44132 7.36104 5.1282 6.98161 7.24074 6.86019C9.24292 6.73878 11.1663 6.90572 12.9477 7.40657C14.7292 7.90741 16.2427 8.74215 17.7088 9.8349C19.175 10.9276 20.452 12.0963 21.6659 13.2801C22.8798 14.4639 25.15 16.4825 28.2873 18.6528C30.3683 20.0946 31.5034 20.7624 33.4741 22.1739ZM15.2652 14.555C13.8779 13.356 13.0108 12.5364 12.4906 12.1873C11.9703 11.8383 11.4501 11.641 10.914 11.6258C10.4568 11.6258 10.2361 11.732 10.2677 12.0052C10.2992 12.2784 10.9929 13.0676 12.5063 14.3728C17.9769 19.0777 21.9024 20.7169 24.9135 24.7995C25.8437 26.0744 26.3639 26.8939 26.6793 27.2126C26.9946 27.5314 27.4202 27.6983 27.9878 27.7135C28.5553 27.7135 28.8549 27.5465 28.8706 27.1975C28.8706 26.8484 28.6184 25.9985 27.7671 24.7388C25.087 20.8079 20.7831 19.3206 15.281 14.555H15.2652Z" fill="#F6F6F6"/>
<path d="M22.1074 6.78477C24.7717 6.64818 26.1118 6.58747 28.7761 6.45088C33.2219 6.22322 36.1227 6.26875 37.4785 6.58747C38.8186 6.90619 39.4965 7.86235 40.0482 9.22828C40.6 10.5942 40.8365 12.6735 42.4761 14.8893C43.9738 16.9079 45.5661 17.9551 45.9602 18.547C46.3543 19.1389 46.039 19.5487 44.8251 19.7308C46.4962 19.9129 47.8205 20.1709 48.8768 20.5504C49.933 20.9298 50.7844 21.294 51.3992 21.6431C52.014 21.9922 53.7482 22.9028 54.7572 24.7544C56.0815 27.1828 56.113 28.5032 51.6672 32.3581C49.5074 32.2519 48.4196 32.2064 46.1651 32.1153C51.2731 27.6381 50.9262 26.3328 47.8836 23.601C46.6539 22.5082 45.4872 21.8708 44.8882 21.6279C44.2891 21.3851 43.5324 21.294 42.5864 21.3244C48.1516 24.8607 50.7055 26.1659 44.3206 32.0394C41.8928 31.9332 40.6789 31.8876 38.2352 31.7662C47.7732 20.0192 22.5804 21.7342 22.139 6.7696L22.1074 6.78477ZM31.9292 12.4458C33.3007 15.1929 34.83 16.316 37.6046 18.1979C38.3614 18.1676 38.7555 18.0613 38.8186 17.8792C38.8658 17.6971 38.2037 17.1659 36.9898 16.058C36.3907 15.5116 36.1069 15.2232 35.6025 14.6161C34.893 13.751 34.4043 13.1288 33.9313 12.8404C33.4584 12.5521 32.7962 12.4155 31.9134 12.4306L31.9292 12.4458Z" fill="#F6F6F6"/>
<path d="M46.7803 5.44885C50.5482 5.22119 52.44 5.09977 56.2079 4.87212C59.1876 4.68999 61.0951 4.82659 61.9307 5.23637C62.7663 5.64615 62.5613 6.58713 62.0253 7.862C61.4893 9.13687 60.1492 11.0947 60.2596 13.3257C60.3227 14.8283 61.0163 15.7237 61.0479 16.2853C61.0794 16.8468 60.6695 17.3173 59.7709 17.7271C61.4578 17.8637 62.9239 18.2279 64.2009 18.8805C65.4621 19.518 67.0071 20.5348 68.3629 22.1436C69.1354 23.0542 69.3404 23.6006 69.6872 24.6782C70.3178 26.6512 69.7503 28.4421 68.9147 29.6563C68.0791 30.8704 66.881 31.7811 65.7617 32.2515C64.6423 32.722 62.8766 32.9042 60.5591 32.7827C57.8948 32.6613 56.5548 32.5854 53.8747 32.464C70.4597 17.3932 32.5128 22.7811 46.7803 5.43367V5.44885ZM51.6045 11.0947C50.8793 13.8418 51.573 14.9193 53.7801 16.8468C54.0323 16.8013 54.2215 16.7861 54.3634 16.7558C54.9467 16.6799 55.1674 16.4978 55.0571 16.2094C54.9467 15.9058 54.1269 15.1318 53.8274 13.5686C53.6697 12.7338 53.6855 12.1116 53.5909 11.7625C53.4963 11.4134 53.3544 11.1858 53.1179 11.1099C52.8815 11.034 52.377 11.034 51.6045 11.0947ZM58.1313 20.0795C61.3474 22.3865 63.0658 23.5247 62.8924 26.8333C63.6491 26.7726 64.1536 26.5905 64.3428 26.2718C64.532 25.9682 64.595 25.2094 64.1063 24.147C63.6491 23.1757 63.318 22.7052 62.4194 21.8704C61.3789 20.9143 60.5276 20.3831 60.0862 20.2161C59.6448 20.0492 58.9984 19.9885 58.1471 20.0644L58.1313 20.0795Z" fill="#F6F6F6"/>
<path d="M81.7316 3.2935C50.6583 19.0321 87.5647 14.7522 75.1732 33.5262C72.903 33.3744 71.7049 33.3441 69.4032 33.2227C82.9297 15.2227 44.6518 20.0793 72.2094 3.87023C76.0088 3.64257 77.8218 3.52115 81.7473 3.27832L81.7316 3.2935Z" fill="#F6F6F6"/>
<path d="M105.647 1.86674C100.918 4.73521 99.2149 6.01008 96.4559 8.45359C93.8074 8.55983 92.5146 8.62053 90.008 8.75713C79.2403 18.2428 92.5935 20.3069 85.5779 34.2394C83.2762 34.0877 82.1254 33.9966 79.8394 33.8448C88.1792 19.2141 70.5379 18.5919 79.8394 9.37939C77.5377 9.54634 76.4026 9.6374 74.1797 9.80434C76.1661 7.52778 77.8372 6.26809 83.9699 3.15679C92.5619 2.62559 96.8816 2.36758 105.631 1.85156L105.647 1.86674Z" fill="#F6F6F6"/>
<path d="M107.933 1.73049C114.617 1.35106 117.991 1.15376 124.802 0.804688C122.689 3.70351 121.649 5.14533 119.599 7.98344C116.036 7.98344 114.302 7.99862 110.96 8.04415C108.611 10.5635 107.492 11.7777 106.167 14.2516C109.257 14.3578 110.865 14.4185 114.255 14.6006C112.442 17.2414 111.559 18.5315 109.762 21.1268C106.971 20.8081 105.631 20.6715 103.093 20.4286C101.721 23.2667 101.17 24.7541 99.8139 27.835C101.989 28.1538 103.125 28.3207 105.505 28.7153C103.503 31.3865 102.51 32.7221 100.508 35.3325C96.3771 35.0138 94.3434 34.862 90.3232 34.5737C98.4896 18.1824 85.4518 16.0121 107.917 1.74567L107.933 1.73049Z" fill="#F6F6F6"/>
</svg>
