<svg width="52" height="94" viewBox="0 0 52 94" fill="none" xmlns="http://www.w3.org/2000/svg">
<path d="M0.134766 37.8104C0.221432 24.757 0.294766 12.4404 0.354766 0.860352C1.85477 1.26702 3.35477 1.63035 4.85477 1.95035C5.79477 2.12035 6.53477 2.83035 7.07477 4.12035C7.61477 5.50035 8.00477 7.38035 8.22477 9.81035C8.45477 12.3004 8.55477 15.2403 8.52477 18.6203C8.50477 21.9303 8.38477 24.7704 8.15477 27.0704C7.94477 29.3104 7.57477 30.7904 7.05477 31.4004C6.54477 32.0004 5.81477 31.4804 4.89477 29.9304C4.43477 29.1704 3.98143 28.4104 3.53477 27.6504C3.4881 33.9437 3.4381 40.557 3.38477 47.4904C2.2981 44.2504 1.21477 41.0237 0.134766 37.8104ZM3.58477 19.6304C3.64477 19.7037 3.7081 19.7804 3.77477 19.8604C4.40477 20.6104 4.78477 20.5704 4.93477 19.7803C5.08477 18.9604 5.16477 17.5904 5.17477 15.7004C5.19477 13.9604 5.13477 12.5804 4.98477 11.5604C4.86477 10.5404 4.54477 9.88035 4.03477 9.57035C3.9081 9.49035 3.78143 9.41368 3.65477 9.34035C3.63477 12.7404 3.61143 16.1704 3.58477 19.6304ZM9.21477 64.6903C9.41477 42.1437 9.58477 21.467 9.72477 2.66035C11.9981 2.83369 14.2748 2.94369 16.5548 2.99035C16.5214 7.25702 16.4881 11.5637 16.4548 15.9104C15.3414 15.557 14.2281 15.1737 13.1148 14.7604C13.0814 18.8537 13.0481 23.0237 13.0148 27.2704C14.0814 28.0837 15.1481 28.8504 16.2148 29.5704C16.1748 34.2037 16.1348 38.9504 16.0948 43.8104C15.0281 42.6637 13.9648 41.4537 12.9048 40.1804C12.8581 45.787 12.8081 51.5604 12.7548 57.5004C13.9214 59.6537 15.0914 61.7037 16.2648 63.6503C16.2048 69.697 16.1448 75.9337 16.0848 82.3604C13.7914 76.827 11.5014 70.937 9.21477 64.6903ZM21.0748 92.0503C19.6648 90.1103 18.6548 85.8403 18.0448 79.7504C17.4348 73.8803 17.1748 66.7204 17.2548 58.4104C17.4281 38.597 17.5814 20.1237 17.7148 2.99035C18.8214 2.96369 19.9314 2.93702 21.0448 2.91035C20.9048 20.817 20.7414 40.1904 20.5548 61.0304C20.5348 62.6504 20.5248 64.1803 20.5548 65.7603C20.5648 67.2803 20.6248 68.5704 20.7348 69.6703C20.8448 70.7904 21.0248 71.4903 21.2848 71.7104C21.5348 71.9103 21.7448 71.5704 21.8648 70.6303C21.9948 69.6804 22.0748 68.4803 22.1148 66.9003C22.1648 65.3403 22.1948 63.7904 22.2148 62.1304C22.4081 40.857 22.5781 21.1004 22.7248 2.86035C23.8314 2.83368 24.9414 2.81702 26.0548 2.81035C25.9081 21.5303 25.7348 41.8604 25.5348 63.8004C25.4448 73.1904 25.0248 80.7203 24.2948 86.0203C23.5548 91.3003 22.4848 93.4604 21.0748 92.0503ZM26.5448 93.1404C26.8781 59.0737 27.1514 28.967 27.3648 2.82035C28.8914 2.85368 30.4114 2.89368 31.9248 2.94035C32.8748 2.96035 33.6248 3.81035 34.1648 5.46035C34.7148 7.12035 35.1048 9.42035 35.3248 12.4304C35.5348 15.4504 35.6348 19.1003 35.5948 23.4604C35.5648 27.7504 35.4248 31.6604 35.1948 35.1704C34.9648 38.7004 34.5748 41.7304 34.0348 44.1504C33.4848 46.6704 32.7348 48.3304 31.7748 49.0804C31.3081 49.407 30.8381 49.717 30.3648 50.0104C30.2448 62.477 30.1114 75.847 29.9648 90.1203C28.8248 91.3803 27.6848 92.387 26.5448 93.1404ZM30.5048 34.7804C30.5714 34.7537 30.6381 34.727 30.7048 34.7004C31.3448 34.4404 31.7448 33.4304 31.9048 31.7704C32.0548 30.0804 32.1548 27.6804 32.1848 24.6004C32.2048 21.7704 32.1448 19.6404 32.0148 18.1804C31.8848 16.6804 31.5648 15.9704 31.0348 16.0504C30.9081 16.0704 30.7814 16.087 30.6548 16.1004C30.6081 22.187 30.5581 28.4137 30.5048 34.7804ZM36.2048 78.5803C36.4648 50.667 36.6814 25.467 36.8548 2.98035C38.0081 2.94702 39.1614 2.89702 40.3148 2.83035C40.1948 19.4104 40.0514 37.2704 39.8848 56.4104C41.0914 53.937 42.3014 51.4037 43.5148 48.8104C43.4881 52.5637 43.4548 56.4137 43.4148 60.3604C41.0014 66.707 38.5981 72.7803 36.2048 78.5803ZM44.4348 57.6004C44.6014 37.6537 44.7448 19.237 44.8648 2.35035C47.1714 1.94368 49.4814 1.45035 51.7948 0.870351C51.7814 3.11035 51.7681 5.34035 51.7548 7.56035C50.6148 8.34035 49.4748 9.09702 48.3348 9.83035C48.3148 12.5637 48.2948 15.3237 48.2748 18.1104C49.3748 16.917 50.4781 15.7037 51.5848 14.4704C51.5781 16.7037 51.5681 18.9637 51.5548 21.2504C50.4414 22.9904 49.3314 24.717 48.2248 26.4304C48.1981 29.9837 48.1714 33.6237 48.1448 37.3504C49.3781 34.6504 50.6181 31.9504 51.8648 29.2504C51.8448 31.8504 51.8248 34.5237 51.8048 37.2704C49.3514 44.0437 46.8948 50.8204 44.4348 57.6004Z" fill="#789FF2"/>
</svg>
