<svg width="120" height="30" viewBox="0 0 120 30" fill="none" xmlns="http://www.w3.org/2000/svg">
<g clip-path="url(#clip0_123_19230)">
<path d="M4.52382 12.6548C5.89697 12.5485 6.58355 12.4913 7.95671 12.3769C10.2453 12.1848 11.7738 12.099 12.5502 12.1399C13.3267 12.1807 13.8948 12.4096 14.2708 12.8387C14.6427 13.2678 14.6835 14.0075 14.377 15.0456C14.0991 15.9937 13.7272 16.6353 13.2573 16.9663C12.7873 17.2974 11.9904 17.5017 10.8706 17.5753C11.8187 17.7142 12.4276 17.9104 12.6933 18.1679C12.9589 18.4253 13.106 18.6624 13.1224 18.879C13.1387 19.0956 13.008 19.6963 12.7219 20.6812C12.3459 21.9645 12.1579 22.6061 11.7819 23.8893C9.83662 23.7626 8.86397 23.6973 6.92275 23.5624C7.44586 22.0421 7.70333 21.282 8.22643 19.7617C8.43486 19.1487 8.4839 18.7686 8.36947 18.6215C8.25504 18.4744 7.85045 18.4008 7.15161 18.4008C6.42417 20.4197 6.05636 21.4291 5.32891 23.448C3.23648 23.2968 2.19027 23.2191 0.09375 23.0515C1.86741 18.8912 2.75015 16.811 4.52382 12.6548ZM8.67598 14.171C8.31634 15.1682 8.13653 15.6627 7.77689 16.6598C8.34086 16.6476 8.74954 16.5944 9.00701 16.4964C9.26448 16.3983 9.47699 16.0999 9.65272 15.5932C9.73854 15.3398 9.78349 15.2172 9.86932 14.9638C9.99192 14.6001 9.9674 14.3672 9.79167 14.2691C9.61594 14.1669 9.24404 14.1342 8.67598 14.1669V14.171Z" fill="#789FF2"/>
<path d="M17.2212 11.5387C20.4539 11.2281 22.0722 11.0646 25.3049 10.7295C25.0842 11.8329 24.9738 12.3846 24.7491 13.4881C23.4331 13.5821 22.7752 13.627 21.4633 13.7169C21.2344 14.7223 21.12 15.2249 20.8871 16.2303C22.1376 16.1853 22.7588 16.1608 24.0094 16.1118C23.7969 17.158 23.6906 17.6811 23.4781 18.7273C22.2112 18.7396 21.5777 18.7437 20.3108 18.7518C20.0452 19.9166 19.9103 20.501 19.6447 21.6698C21.1568 21.7107 21.9169 21.7311 23.429 21.7638C23.2084 22.8713 23.098 23.4271 22.8814 24.5346C19.2524 24.3425 17.4378 24.2363 13.8047 24.0115C14.9449 19.8553 16.081 15.6949 17.2212 11.5387Z" fill="#789FF2"/>
<path d="M38.5422 9.27832C37.1772 14.5748 35.7223 19.8467 34.1653 25.0901C30.9858 24.947 29.396 24.8735 26.2165 24.71C26.0694 20.0265 25.9672 15.3513 25.9141 10.6678C27.9575 10.4553 28.9832 10.345 31.0266 10.1202C30.9817 14.1089 30.904 17.5663 30.7528 20.4148C31.4435 17.5418 32.0892 14.963 32.6981 12.6949C32.9964 11.5628 33.1436 10.9989 33.4337 9.85864C35.4771 9.62978 36.5029 9.51535 38.5463 9.28241L38.5422 9.27832Z" fill="#789FF2"/>
<path d="M49.9892 18.3348C49.9115 20.1289 49.8134 21.3999 49.6868 22.1437C49.5601 22.8875 49.2372 23.5659 48.71 24.1625C48.1828 24.7633 47.484 25.2047 46.6094 25.4948C45.7389 25.785 44.7295 25.8994 43.5934 25.8504C42.5145 25.8054 41.5541 25.6133 40.7245 25.2905C39.8908 24.9676 39.245 24.514 38.7792 23.9296C38.3173 23.3452 38.0721 22.7281 38.0394 22.066C38.0108 21.4039 38.0803 20.2474 38.252 18.5963C38.3664 17.497 38.4236 16.9494 38.5339 15.8541C38.7015 14.2439 38.865 13.0996 39.0244 12.4212C39.1837 11.7428 39.527 11.1053 40.0461 10.4963C40.5692 9.88742 41.2394 9.38883 42.0567 8.98833C42.8741 8.59191 43.8059 8.32627 44.8562 8.19549C45.8534 8.07289 46.7361 8.11376 47.5126 8.32627C48.2891 8.53878 48.9062 8.92703 49.3639 9.491C49.8216 10.0591 50.0832 10.7089 50.1445 11.4363C50.2058 12.1638 50.1976 13.447 50.12 15.282C50.0668 16.5039 50.0423 17.1128 49.9892 18.3348ZM45.2935 12.8422C45.3466 12.0493 45.3343 11.5426 45.2485 11.3341C45.1668 11.1216 44.9747 11.0317 44.6723 11.0562C44.4148 11.0808 44.2146 11.187 44.0634 11.375C43.9121 11.563 43.8059 12.0902 43.7405 12.9566C43.5035 16.0993 43.385 17.6686 43.1479 20.8114C43.0744 21.7881 43.0744 22.393 43.152 22.6218C43.2297 22.8507 43.4381 22.9692 43.7855 22.9774C44.1369 22.9855 44.374 22.8548 44.4884 22.5891C44.6028 22.3235 44.6968 21.69 44.7663 20.6847C44.9788 17.546 45.085 15.9808 45.2935 12.8422Z" fill="#789FF2"/>
<path d="M57.0916 7.08398C57.0303 12.1271 56.969 17.1701 56.9077 22.2132C58.1624 22.2214 58.7877 22.2255 60.0423 22.2377C60.0423 23.7907 60.0423 24.5672 60.0423 26.1202C56.6748 25.9935 54.991 25.9322 51.6235 25.8055C51.8279 19.7612 52.0363 13.7127 52.2406 7.66839C54.1778 7.43545 55.1504 7.32102 57.0876 7.08398H57.0916Z" fill="#789FF2"/>
<path d="M72.2339 5.26483C72.4505 10.0218 72.6671 14.7788 72.8878 19.5358C72.9614 21.1542 72.9654 22.2903 72.896 22.9442C72.8265 23.5981 72.5649 24.2642 72.1113 24.9345C71.6536 25.6047 71.0324 26.0992 70.2437 26.418C69.4549 26.7367 68.519 26.8675 67.4279 26.8226C66.2223 26.7735 65.1556 26.5283 64.232 26.0992C63.3084 25.6701 62.6136 25.1388 62.1559 24.5013C61.6982 23.8637 61.4285 23.2058 61.3427 22.5151C61.2568 21.8244 61.2119 20.3777 61.1996 18.1668C61.1833 14.3089 61.1628 10.4469 61.1465 6.58894C63.0836 6.356 64.0563 6.23748 65.9934 6.00454C66.1119 11.0926 66.2345 16.1765 66.353 21.2646C66.3735 22.1514 66.4348 22.7194 66.5329 22.9687C66.6309 23.218 66.8271 23.3447 67.1132 23.3488C67.4401 23.3529 67.6485 23.2221 67.7344 22.9483C67.8202 22.6745 67.8488 22.0247 67.8202 20.9989C67.6772 15.9477 67.53 10.8923 67.387 5.84106C69.3241 5.60812 70.2968 5.49369 72.2339 5.26074V5.26483Z" fill="#789FF2"/>
<path d="M83.8729 3.91309C84.0241 5.77257 84.1017 6.70435 84.253 8.56384C83.0841 8.65783 82.4997 8.70279 81.3268 8.79678C81.7723 14.8656 82.2218 20.9345 82.6673 27.0075C80.5749 26.9175 79.5286 26.8726 77.4321 26.7868C77.0888 20.9263 76.7455 15.0659 76.4023 9.20137C75.2375 9.29946 74.6531 9.3485 73.4884 9.44658C73.4026 7.72196 73.3617 6.86374 73.2759 5.13912C77.5139 4.63645 79.6308 4.39124 83.8688 3.91309H83.8729Z" fill="#789FF2"/>
<path d="M89.823 3.25488C90.6158 11.3181 91.4087 19.3813 92.2056 27.4486C90.1132 27.3464 89.0669 27.2974 86.9704 27.1993C86.3043 19.3976 85.6422 11.5919 84.9761 3.79025C86.9132 3.57365 87.8859 3.4674 89.823 3.25488Z" fill="#789FF2"/>
<path d="M104.85 17.3216C105.194 19.9657 105.39 21.8375 105.439 22.9327C105.488 24.028 105.324 25.0211 104.94 25.8997C104.556 26.7784 103.968 27.4323 103.175 27.8614C102.382 28.2905 101.413 28.4662 100.273 28.3967C99.1942 28.3313 98.197 28.0534 97.2938 27.5753C96.3866 27.0931 95.6305 26.4106 95.0175 25.5278C94.4086 24.6451 94.004 23.701 93.7997 22.6916C93.5953 21.6822 93.3665 19.9167 93.1049 17.3951C92.9333 15.7196 92.8474 14.8818 92.6717 13.2062C92.4183 10.746 92.2835 9.0009 92.2671 7.97103C92.2508 6.94117 92.4347 5.98077 92.8107 5.08577C93.1866 4.19077 93.7465 3.47149 94.4862 2.92795C95.2259 2.38441 96.1169 2.0493 97.1672 1.93895C98.1643 1.8327 99.0839 1.96347 99.9339 2.33946C100.784 2.71544 101.511 3.33663 102.116 4.2112C102.721 5.08577 103.142 6.0666 103.375 7.14142C103.608 8.21624 103.902 10.1125 104.254 12.8179C104.487 14.6202 104.605 15.5193 104.838 17.3175L104.85 17.3216ZM98.7773 8.95186C98.6343 7.76261 98.4954 7.00655 98.3605 6.6837C98.2256 6.36084 98.0049 6.20963 97.7025 6.23415C97.4451 6.25459 97.2652 6.40171 97.159 6.67961C97.0527 6.95751 97.0772 7.74217 97.2244 9.04586C97.678 12.9773 98.1316 16.9129 98.5853 20.8444C98.7528 22.3115 98.904 23.2188 99.0389 23.5662C99.1738 23.9135 99.4108 24.0934 99.7582 24.1056C100.11 24.1179 100.314 23.9258 100.363 23.5294C100.412 23.133 100.351 22.1848 100.171 20.6809C99.705 16.7739 99.2432 12.8629 98.7773 8.95595V8.95186Z" fill="#789FF2"/>
<path d="M115.476 0.81543C116.951 10.2722 118.43 19.729 119.906 29.1858C118.071 29.0387 117.151 28.9692 115.316 28.8384C113.816 24.6454 112.317 20.4483 110.825 16.2512C111.413 20.3829 112.002 24.5146 112.594 28.6464C110.845 28.5238 109.971 28.4666 108.217 28.3521C107.028 19.4838 105.839 10.6196 104.654 1.7513C106.276 1.60009 107.085 1.52653 108.708 1.38349C110.224 5.46618 111.748 9.54478 113.273 13.6234C112.656 9.46305 112.039 5.3068 111.426 1.14646C113.048 1.00751 113.857 0.94212 115.48 0.81543H115.476Z" fill="#789FF2"/>
</g>
<defs>
<clipPath id="clip0_123_19230">
<rect width="120" height="29.5637" fill="white" transform="translate(0 0.217773)"/>
</clipPath>
</defs>
</svg>
